ISO-10303-21;
HEADER;
/* Generated by software containing ST-Developer
 * from STEP Tools, Inc. (www.steptools.com) 
 */

FILE_DESCRIPTION(
/* description */ (
'CAx-IF Rec.Pracs.---Representation and Presentation of Product Manufa
cturing Information (PMI)---4.0---2014-10-13',
'CAx-IF Rec.Pracs.---3D Tessellated Geometry---0.4---2014-09-14','2;1'),

/* implementation_level */ '2;1');

FILE_NAME(
/* name */ 'Halter',
/* time_stamp */ '2026-06-01T09:50:27+02:00',
/* author */ (''),
/* organization */ (''),
/* preprocessor_version */ 'ST-DEVELOPER v16.7',
/* originating_system */ $,
/* authorisation */ $);

FILE_SCHEMA (('AP242_MANAGED_MODEL_BASED_3D_ENGINEERING_MIM_LF { 1 0 10303 442 20130219 1 4 }'));
ENDSEC;

DATA;
#10=PROPERTY_DEFINITION_REPRESENTATION(#14,#12);
#11=PROPERTY_DEFINITION_REPRESENTATION(#15,#13);
#12=REPRESENTATION('',(#16),#441);
#13=REPRESENTATION('',(#17),#441);
#14=PROPERTY_DEFINITION('pmi validation property','',#446);
#15=PROPERTY_DEFINITION('pmi validation property','',#446);
#16=VALUE_REPRESENTATION_ITEM('number of annotations',COUNT_MEASURE(0.));
#17=VALUE_REPRESENTATION_ITEM('number of views',COUNT_MEASURE(8.));
#18=CAMERA_MODEL_D3('Top',#276,#26);
#19=CAMERA_MODEL_D3('Front',#278,#27);
#20=CAMERA_MODEL_D3('Right',#280,#28);
#21=CAMERA_MODEL_D3('Back',#282,#29);
#22=CAMERA_MODEL_D3('Bottom',#284,#30);
#23=CAMERA_MODEL_D3('Left',#286,#31);
#24=CAMERA_MODEL_D3('Isometric',#288,#32);
#25=CAMERA_MODEL_D3('Trimetric',#290,#33);
#26=VIEW_VOLUME(.PARALLEL.,#417,0.,0.,.F.,0.,.F.,.F.,#34);
#27=VIEW_VOLUME(.PARALLEL.,#420,0.,0.,.F.,0.,.F.,.F.,#35);
#28=VIEW_VOLUME(.PARALLEL.,#423,0.,0.,.F.,0.,.F.,.F.,#36);
#29=VIEW_VOLUME(.PARALLEL.,#426,0.,0.,.F.,0.,.F.,.F.,#37);
#30=VIEW_VOLUME(.PARALLEL.,#429,0.,0.,.F.,0.,.F.,.F.,#38);
#31=VIEW_VOLUME(.PARALLEL.,#432,0.,0.,.F.,0.,.F.,.F.,#39);
#32=VIEW_VOLUME(.PARALLEL.,#435,0.,0.,.F.,0.,.F.,.F.,#40);
#33=VIEW_VOLUME(.PARALLEL.,#438,0.,0.,.F.,0.,.F.,.F.,#41);
#34=PLANAR_BOX('',0.0184500001549867,0.0184500001549867,#277);
#35=PLANAR_BOX('',0.0512499993737288,0.0512499993737288,#279);
#36=PLANAR_BOX('',0.0512499993737288,0.0512499993737288,#281);
#37=PLANAR_BOX('',0.0512499993737288,0.0512499993737288,#283);
#38=PLANAR_BOX('',0.0184500001549867,0.0184500001549867,#285);
#39=PLANAR_BOX('',0.0512499993737288,0.0512499993737288,#287);
#40=PLANAR_BOX('',0.0514699047682718,0.0514699047682718,#289);
#41=PLANAR_BOX('',0.0533657366511365,0.0533657366511365,#291);
#42=DRAUGHTING_MODEL('Top',(#18),#441);
#43=DRAUGHTING_MODEL('Front',(#19),#441);
#44=DRAUGHTING_MODEL('Right',(#20),#441);
#45=DRAUGHTING_MODEL('Back',(#21),#441);
#46=DRAUGHTING_MODEL('Bottom',(#22),#441);
#47=DRAUGHTING_MODEL('Left',(#23),#441);
#48=DRAUGHTING_MODEL('Isometric',(#24),#441);
#49=DRAUGHTING_MODEL('Trimetric',(#25),#441);
#50=SHAPE_REPRESENTATION_RELATIONSHIP('','',#257,#51);
#51=ADVANCED_BREP_SHAPE_REPRESENTATION('',(#255),#441);
#52=CYLINDRICAL_SURFACE('',#271,2.3);
#53=CYLINDRICAL_SURFACE('',#272,2.3);
#54=CYLINDRICAL_SURFACE('',#273,2.3);
#55=CIRCLE('',#264,2.3);
#56=CIRCLE('',#265,2.3);
#57=CIRCLE('',#266,2.3);
#58=CIRCLE('',#268,2.3);
#59=CIRCLE('',#269,2.3);
#60=CIRCLE('',#270,2.3);
#61=ORIENTED_EDGE('',*,*,#109,.T.);
#62=ORIENTED_EDGE('',*,*,#110,.F.);
#63=ORIENTED_EDGE('',*,*,#111,.F.);
#64=ORIENTED_EDGE('',*,*,#112,.T.);
#65=ORIENTED_EDGE('',*,*,#113,.T.);
#66=ORIENTED_EDGE('',*,*,#114,.T.);
#67=ORIENTED_EDGE('',*,*,#115,.F.);
#68=ORIENTED_EDGE('',*,*,#110,.T.);
#69=ORIENTED_EDGE('',*,*,#116,.F.);
#70=ORIENTED_EDGE('',*,*,#117,.T.);
#71=ORIENTED_EDGE('',*,*,#118,.T.);
#72=ORIENTED_EDGE('',*,*,#119,.T.);
#73=ORIENTED_EDGE('',*,*,#120,.F.);
#74=ORIENTED_EDGE('',*,*,#121,.T.);
#75=ORIENTED_EDGE('',*,*,#122,.T.);
#76=ORIENTED_EDGE('',*,*,#112,.F.);
#77=ORIENTED_EDGE('',*,*,#123,.F.);
#78=ORIENTED_EDGE('',*,*,#124,.F.);
#79=ORIENTED_EDGE('',*,*,#125,.F.);
#80=ORIENTED_EDGE('',*,*,#115,.T.);
#81=ORIENTED_EDGE('',*,*,#126,.T.);
#82=ORIENTED_EDGE('',*,*,#116,.T.);
#83=ORIENTED_EDGE('',*,*,#127,.T.);
#84=ORIENTED_EDGE('',*,*,#120,.T.);
#85=ORIENTED_EDGE('',*,*,#111,.T.);
#86=ORIENTED_EDGE('',*,*,#128,.T.);
#87=ORIENTED_EDGE('',*,*,#129,.T.);
#88=ORIENTED_EDGE('',*,*,#130,.T.);
#89=ORIENTED_EDGE('',*,*,#118,.F.);
#90=ORIENTED_EDGE('',*,*,#131,.T.);
#91=ORIENTED_EDGE('',*,*,#113,.F.);
#92=ORIENTED_EDGE('',*,*,#109,.F.);
#93=ORIENTED_EDGE('',*,*,#122,.F.);
#94=ORIENTED_EDGE('',*,*,#132,.T.);
#95=ORIENTED_EDGE('',*,*,#125,.T.);
#96=ORIENTED_EDGE('',*,*,#130,.F.);
#97=ORIENTED_EDGE('',*,*,#124,.T.);
#98=ORIENTED_EDGE('',*,*,#129,.F.);
#99=ORIENTED_EDGE('',*,*,#123,.T.);
#100=ORIENTED_EDGE('',*,*,#128,.F.);
#101=ORIENTED_EDGE('',*,*,#126,.F.);
#102=ORIENTED_EDGE('',*,*,#114,.F.);
#103=ORIENTED_EDGE('',*,*,#131,.F.);
#104=ORIENTED_EDGE('',*,*,#117,.F.);
#105=ORIENTED_EDGE('',*,*,#127,.F.);
#106=ORIENTED_EDGE('',*,*,#119,.F.);
#107=ORIENTED_EDGE('',*,*,#132,.F.);
#108=ORIENTED_EDGE('',*,*,#121,.F.);
#109=EDGE_CURVE('',#133,#134,#151,.T.);
#110=EDGE_CURVE('',#135,#134,#152,.T.);
#111=EDGE_CURVE('',#136,#135,#153,.T.);
#112=EDGE_CURVE('',#136,#133,#154,.T.);
#113=EDGE_CURVE('',#134,#137,#155,.T.);
#114=EDGE_CURVE('',#137,#138,#156,.T.);
#115=EDGE_CURVE('',#135,#138,#157,.T.);
#116=EDGE_CURVE('',#139,#140,#158,.T.);
#117=EDGE_CURVE('',#139,#141,#159,.T.);
#118=EDGE_CURVE('',#141,#142,#160,.T.);
#119=EDGE_CURVE('',#142,#140,#161,.T.);
#120=EDGE_CURVE('',#143,#136,#162,.T.);
#121=EDGE_CURVE('',#143,#144,#163,.T.);
#122=EDGE_CURVE('',#144,#133,#164,.T.);
#123=EDGE_CURVE('',#145,#145,#55,.T.);
#124=EDGE_CURVE('',#146,#146,#56,.T.);
#125=EDGE_CURVE('',#147,#147,#57,.T.);
#126=EDGE_CURVE('',#138,#139,#165,.F.);
#127=EDGE_CURVE('',#140,#143,#166,.F.);
#128=EDGE_CURVE('',#148,#148,#58,.T.);
#129=EDGE_CURVE('',#149,#149,#59,.T.);
#130=EDGE_CURVE('',#150,#150,#60,.T.);
#131=EDGE_CURVE('',#141,#137,#167,.F.);
#132=EDGE_CURVE('',#144,#142,#168,.F.);
#133=VERTEX_POINT('',#365);
#134=VERTEX_POINT('',#366);
#135=VERTEX_POINT('',#368);
#136=VERTEX_POINT('',#370);
#137=VERTEX_POINT('',#374);
#138=VERTEX_POINT('',#376);
#139=VERTEX_POINT('',#380);
#140=VERTEX_POINT('',#381);
#141=VERTEX_POINT('',#383);
#142=VERTEX_POINT('',#385);
#143=VERTEX_POINT('',#389);
#144=VERTEX_POINT('',#391);
#145=VERTEX_POINT('',#395);
#146=VERTEX_POINT('',#397);
#147=VERTEX_POINT('',#399);
#148=VERTEX_POINT('',#404);
#149=VERTEX_POINT('',#406);
#150=VERTEX_POINT('',#408);
#151=LINE('',#364,#169);
#152=LINE('',#367,#170);
#153=LINE('',#369,#171);
#154=LINE('',#371,#172);
#155=LINE('',#373,#173);
#156=LINE('',#375,#174);
#157=LINE('',#377,#175);
#158=LINE('',#379,#176);
#159=LINE('',#382,#177);
#160=LINE('',#384,#178);
#161=LINE('',#386,#179);
#162=LINE('',#388,#180);
#163=LINE('',#390,#181);
#164=LINE('',#392,#182);
#165=LINE('',#400,#183);
#166=LINE('',#401,#184);
#167=LINE('',#409,#185);
#168=LINE('',#410,#186);
#169=VECTOR('',#296,1000.);
#170=VECTOR('',#297,1000.);
#171=VECTOR('',#298,1000.);
#172=VECTOR('',#299,1000.);
#173=VECTOR('',#302,1000.);
#174=VECTOR('',#303,1000.);
#175=VECTOR('',#304,1000.);
#176=VECTOR('',#307,1000.);
#177=VECTOR('',#308,1000.);
#178=VECTOR('',#309,1000.);
#179=VECTOR('',#310,1000.);
#180=VECTOR('',#313,1000.);
#181=VECTOR('',#314,1000.);
#182=VECTOR('',#315,1000.);
#183=VECTOR('',#324,1000.);
#184=VECTOR('',#325,1000.);
#185=VECTOR('',#334,1000.);
#186=VECTOR('',#335,1000.);
#187=EDGE_LOOP('',(#61,#62,#63,#64));
#188=EDGE_LOOP('',(#65,#66,#67,#68));
#189=EDGE_LOOP('',(#69,#70,#71,#72));
#190=EDGE_LOOP('',(#73,#74,#75,#76));
#191=EDGE_LOOP('',(#77));
#192=EDGE_LOOP('',(#78));
#193=EDGE_LOOP('',(#79));
#194=EDGE_LOOP('',(#80,#81,#82,#83,#84,#85));
#195=EDGE_LOOP('',(#86));
#196=EDGE_LOOP('',(#87));
#197=EDGE_LOOP('',(#88));
#198=EDGE_LOOP('',(#89,#90,#91,#92,#93,#94));
#199=EDGE_LOOP('',(#95));
#200=EDGE_LOOP('',(#96));
#201=EDGE_LOOP('',(#97));
#202=EDGE_LOOP('',(#98));
#203=EDGE_LOOP('',(#99));
#204=EDGE_LOOP('',(#100));
#205=EDGE_LOOP('',(#101,#102,#103,#104));
#206=EDGE_LOOP('',(#105,#106,#107,#108));
#207=FACE_BOUND('',#187,.T.);
#208=FACE_BOUND('',#188,.T.);
#209=FACE_BOUND('',#189,.T.);
#210=FACE_BOUND('',#190,.T.);
#211=FACE_BOUND('',#191,.T.);
#212=FACE_BOUND('',#192,.T.);
#213=FACE_BOUND('',#193,.T.);
#214=FACE_BOUND('',#194,.T.);
#215=FACE_BOUND('',#195,.T.);
#216=FACE_BOUND('',#196,.T.);
#217=FACE_BOUND('',#197,.T.);
#218=FACE_BOUND('',#198,.T.);
#219=FACE_BOUND('',#199,.T.);
#220=FACE_BOUND('',#200,.T.);
#221=FACE_BOUND('',#201,.T.);
#222=FACE_BOUND('',#202,.T.);
#223=FACE_BOUND('',#203,.T.);
#224=FACE_BOUND('',#204,.T.);
#225=FACE_BOUND('',#205,.T.);
#226=FACE_BOUND('',#206,.T.);
#227=PLANE('',#259);
#228=PLANE('',#260);
#229=PLANE('',#261);
#230=PLANE('',#262);
#231=PLANE('',#263);
#232=PLANE('',#267);
#233=PLANE('',#274);
#234=PLANE('',#275);
#235=ADVANCED_FACE('',(#207),#227,.F.);
#236=ADVANCED_FACE('',(#208),#228,.F.);
#237=ADVANCED_FACE('',(#209),#229,.F.);
#238=ADVANCED_FACE('',(#210),#230,.F.);
#239=ADVANCED_FACE('',(#211,#212,#213,#214),#231,.T.);
#240=ADVANCED_FACE('',(#215,#216,#217,#218),#232,.F.);
#241=ADVANCED_FACE('',(#219,#220),#52,.F.);
#242=ADVANCED_FACE('',(#221,#222),#53,.F.);
#243=ADVANCED_FACE('',(#223,#224),#54,.F.);
#244=ADVANCED_FACE('',(#225),#233,.F.);
#245=ADVANCED_FACE('',(#226),#234,.F.);
#246=CLOSED_SHELL('',(#235,#236,#237,#238,#239,#240,#241,#242,#243,#244,
#245));
#247=STYLED_ITEM('',(#248),#255);
#248=PRESENTATION_STYLE_ASSIGNMENT((#249));
#249=SURFACE_STYLE_USAGE(.BOTH.,#250);
#250=SURFACE_SIDE_STYLE('',(#251));
#251=SURFACE_STYLE_FILL_AREA(#252);
#252=FILL_AREA_STYLE('',(#253));
#253=FILL_AREA_STYLE_COLOUR('',#254);
#254=COLOUR_RGB('',0.596063172350652,0.666666666666667,0.686259250782025);
#255=MANIFOLD_SOLID_BREP('',#246);
#256=SHAPE_DEFINITION_REPRESENTATION(#446,#257);
#257=SHAPE_REPRESENTATION('Halter',(#258),#441);
#258=AXIS2_PLACEMENT_3D('',#362,#292,#293);
#259=AXIS2_PLACEMENT_3D('',#363,#294,#295);
#260=AXIS2_PLACEMENT_3D('',#372,#300,#301);
#261=AXIS2_PLACEMENT_3D('',#378,#305,#306);
#262=AXIS2_PLACEMENT_3D('',#387,#311,#312);
#263=AXIS2_PLACEMENT_3D('',#393,#316,#317);
#264=AXIS2_PLACEMENT_3D('',#394,#318,#319);
#265=AXIS2_PLACEMENT_3D('',#396,#320,#321);
#266=AXIS2_PLACEMENT_3D('',#398,#322,#323);
#267=AXIS2_PLACEMENT_3D('',#402,#326,#327);
#268=AXIS2_PLACEMENT_3D('',#403,#328,#329);
#269=AXIS2_PLACEMENT_3D('',#405,#330,#331);
#270=AXIS2_PLACEMENT_3D('',#407,#332,#333);
#271=AXIS2_PLACEMENT_3D('',#411,#336,#337);
#272=AXIS2_PLACEMENT_3D('',#412,#338,#339);
#273=AXIS2_PLACEMENT_3D('',#413,#340,#341);
#274=AXIS2_PLACEMENT_3D('',#414,#342,#343);
#275=AXIS2_PLACEMENT_3D('',#415,#344,#345);
#276=AXIS2_PLACEMENT_3D('',#416,#346,#347);
#277=AXIS2_PLACEMENT_3D('',#418,#346,#347);
#278=AXIS2_PLACEMENT_3D('',#419,#348,#349);
#279=AXIS2_PLACEMENT_3D('',#421,#348,#349);
#280=AXIS2_PLACEMENT_3D('',#422,#350,#351);
#281=AXIS2_PLACEMENT_3D('',#424,#350,#351);
#282=AXIS2_PLACEMENT_3D('',#425,#352,#353);
#283=AXIS2_PLACEMENT_3D('',#427,#352,#353);
#284=AXIS2_PLACEMENT_3D('',#428,#354,#355);
#285=AXIS2_PLACEMENT_3D('',#430,#354,#355);
#286=AXIS2_PLACEMENT_3D('',#431,#356,#357);
#287=AXIS2_PLACEMENT_3D('',#433,#356,#357);
#288=AXIS2_PLACEMENT_3D('',#434,#358,#359);
#289=AXIS2_PLACEMENT_3D('',#436,#358,#359);
#290=AXIS2_PLACEMENT_3D('',#437,#360,#361);
#291=AXIS2_PLACEMENT_3D('',#439,#360,#361);
#292=DIRECTION('',(0.,0.,1.));
#293=DIRECTION('',(1.,0.,0.));
#294=DIRECTION('',(0.,0.,-1.));
#295=DIRECTION('',(-1.,0.,0.));
#296=DIRECTION('',(0.,-1.,0.));
#297=DIRECTION('',(-1.,0.,0.));
#298=DIRECTION('',(0.,-1.,0.));
#299=DIRECTION('',(-1.,0.,0.));
#300=DIRECTION('',(0.,1.,0.));
#301=DIRECTION('',(1.,0.,0.));
#302=DIRECTION('',(0.,0.,-1.));
#303=DIRECTION('',(1.,0.,0.));
#304=DIRECTION('',(0.,0.,-1.));
#305=DIRECTION('',(0.,0.,1.));
#306=DIRECTION('',(1.,0.,0.));
#307=DIRECTION('',(0.,1.,0.));
#308=DIRECTION('',(-1.,0.,0.));
#309=DIRECTION('',(0.,1.,0.));
#310=DIRECTION('',(1.,0.,0.));
#311=DIRECTION('',(0.,-1.,0.));
#312=DIRECTION('',(-1.,0.,0.));
#313=DIRECTION('',(0.,0.,1.));
#314=DIRECTION('',(-1.,0.,0.));
#315=DIRECTION('',(0.,0.,1.));
#316=DIRECTION('',(1.,0.,0.));
#317=DIRECTION('',(0.,0.,-1.));
#318=DIRECTION('',(1.,0.,0.));
#319=DIRECTION('',(0.,0.,-1.));
#320=DIRECTION('',(1.,0.,0.));
#321=DIRECTION('',(0.,0.,-1.));
#322=DIRECTION('',(1.,0.,0.));
#323=DIRECTION('',(0.,0.,-1.));
#324=DIRECTION('',(0.,-0.707106781186548,0.707106781186547));
#325=DIRECTION('',(0.,-0.707106781186548,-0.707106781186547));
#326=DIRECTION('',(1.,0.,0.));
#327=DIRECTION('',(0.,0.,-1.));
#328=DIRECTION('',(1.,0.,0.));
#329=DIRECTION('',(0.,0.,-1.));
#330=DIRECTION('',(1.,0.,0.));
#331=DIRECTION('',(0.,0.,-1.));
#332=DIRECTION('',(1.,0.,0.));
#333=DIRECTION('',(0.,0.,-1.));
#334=DIRECTION('',(0.,0.707106781186548,-0.707106781186547));
#335=DIRECTION('',(0.,0.707106781186548,0.707106781186547));
#336=DIRECTION('',(1.,0.,0.));
#337=DIRECTION('',(0.,0.,-1.));
#338=DIRECTION('',(1.,0.,0.));
#339=DIRECTION('',(0.,0.,-1.));
#340=DIRECTION('',(1.,0.,0.));
#341=DIRECTION('',(0.,0.,-1.));
#342=DIRECTION('',(0.,0.707106781186547,0.707106781186548));
#343=DIRECTION('',(-1.,0.,0.));
#344=DIRECTION('',(0.,-0.707106781186547,0.707106781186548));
#345=DIRECTION('',(-1.,0.,0.));
#346=DIRECTION('',(0.,0.,1.));
#347=DIRECTION('',(1.,0.,0.));
#348=DIRECTION('',(0.,-1.,0.));
#349=DIRECTION('',(1.,0.,0.));
#350=DIRECTION('',(1.,0.,0.));
#351=DIRECTION('',(0.,1.,0.));
#352=DIRECTION('',(0.,1.,0.));
#353=DIRECTION('',(-1.,0.,0.));
#354=DIRECTION('',(0.,0.,-1.));
#355=DIRECTION('',(1.,0.,0.));
#356=DIRECTION('',(-1.,0.,0.));
#357=DIRECTION('',(0.,-1.,0.));
#358=DIRECTION('',(0.577350269189626,-0.577350269189626,0.577350269189626));
#359=DIRECTION('',(0.707106774752412,0.707106787620683,1.28682710043293E-8));
#360=DIRECTION('',(0.718873086818576,-0.585048618558824,0.375419230954334));
#361=DIRECTION('',(0.631219077137673,0.775604587826466,-3.67188746352998E-8));
#362=CARTESIAN_POINT('',(0.,0.,0.));
#363=CARTESIAN_POINT('',(145.938440260762,20.8129450825056,-8.99999999999999));
#364=CARTESIAN_POINT('',(140.938440260762,20.8129450825056,-8.99999999999999));
#365=CARTESIAN_POINT('',(140.938440260762,20.8129450825056,-8.99999999999999));
#366=CARTESIAN_POINT('',(140.938440260762,2.81294508250564,-8.99999999999999));
#367=CARTESIAN_POINT('',(145.938440260762,2.81294508250564,-8.99999999999999));
#368=CARTESIAN_POINT('',(145.938440260762,2.81294508250564,-8.99999999999999));
#369=CARTESIAN_POINT('',(145.938440260762,20.8129450825056,-8.99999999999999));
#370=CARTESIAN_POINT('',(145.938440260762,20.8129450825056,-8.99999999999999));
#371=CARTESIAN_POINT('',(145.938440260762,20.8129450825056,-8.99999999999999));
#372=CARTESIAN_POINT('',(145.938440260762,2.81294508250564,-8.99999999999999));
#373=CARTESIAN_POINT('',(140.938440260762,2.81294508250564,-8.99999999999999));
#374=CARTESIAN_POINT('',(140.938440260762,2.81294508250564,-54.));
#375=CARTESIAN_POINT('',(145.938440260762,2.81294508250564,-54.));
#376=CARTESIAN_POINT('',(145.938440260762,2.81294508250564,-54.));
#377=CARTESIAN_POINT('',(145.938440260762,2.81294508250564,-8.99999999999999));
#378=CARTESIAN_POINT('',(145.938440260762,2.81294508250564,-59.));
#379=CARTESIAN_POINT('',(145.938440260762,2.81294508250564,-59.));
#380=CARTESIAN_POINT('',(145.938440260762,7.81294508250564,-59.));
#381=CARTESIAN_POINT('',(145.938440260762,15.8129450825056,-59.));
#382=CARTESIAN_POINT('',(145.938440260762,7.81294508250564,-59.));
#383=CARTESIAN_POINT('',(140.938440260762,7.81294508250564,-59.));
#384=CARTESIAN_POINT('',(140.938440260762,2.81294508250564,-59.));
#385=CARTESIAN_POINT('',(140.938440260762,15.8129450825056,-59.));
#386=CARTESIAN_POINT('',(145.938440260762,15.8129450825056,-59.));
#387=CARTESIAN_POINT('',(145.938440260762,20.8129450825056,-59.));
#388=CARTESIAN_POINT('',(145.938440260762,20.8129450825056,-59.));
#389=CARTESIAN_POINT('',(145.938440260762,20.8129450825056,-54.));
#390=CARTESIAN_POINT('',(145.938440260762,20.8129450825056,-54.));
#391=CARTESIAN_POINT('',(140.938440260762,20.8129450825056,-54.));
#392=CARTESIAN_POINT('',(140.938440260762,20.8129450825056,-59.));
#393=CARTESIAN_POINT('',(145.938440260762,2.81294508250564,-8.99999999999999));
#394=CARTESIAN_POINT('',(145.938440260762,15.8129450825056,-12.8));
#395=CARTESIAN_POINT('',(145.938440260762,15.8129450825056,-15.1));
#396=CARTESIAN_POINT('',(145.938440260762,7.81294508250564,-12.8));
#397=CARTESIAN_POINT('',(145.938440260762,7.81294508250564,-15.1));
#398=CARTESIAN_POINT('',(145.938440260762,12.4129450825056,-53.3));
#399=CARTESIAN_POINT('',(145.938440260762,12.4129450825056,-55.6));
#400=CARTESIAN_POINT('',(145.938440260762,-19.6870549174944,-31.5));
#401=CARTESIAN_POINT('',(145.938440260762,34.3129450825056,-40.5));
#402=CARTESIAN_POINT('',(140.938440260762,2.81294508250564,-8.99999999999999));
#403=CARTESIAN_POINT('',(140.938440260762,15.8129450825056,-12.8));
#404=CARTESIAN_POINT('',(140.938440260762,15.8129450825056,-15.1));
#405=CARTESIAN_POINT('',(140.938440260762,7.81294508250564,-12.8));
#406=CARTESIAN_POINT('',(140.938440260762,7.81294508250564,-15.1));
#407=CARTESIAN_POINT('',(140.938440260762,12.4129450825056,-53.3));
#408=CARTESIAN_POINT('',(140.938440260762,12.4129450825056,-55.6));
#409=CARTESIAN_POINT('',(140.938440260762,7.81294508250564,-59.));
#410=CARTESIAN_POINT('',(140.938440260762,20.8129450825056,-54.));
#411=CARTESIAN_POINT('',(139.938440260762,12.4129450825056,-53.3));
#412=CARTESIAN_POINT('',(139.938440260762,7.81294508250564,-12.8));
#413=CARTESIAN_POINT('',(139.938440260762,15.8129450825056,-12.8));
#414=CARTESIAN_POINT('',(145.938440260762,7.81294508250564,-59.));
#415=CARTESIAN_POINT('',(145.938440260762,20.8129450825056,-54.));
#416=CARTESIAN_POINT('',(0.143438446044922,0.0118129453659058,0.));
#417=CARTESIAN_POINT('',(0.143438446044922,0.0118129453659058,0.036999454498291));
#418=CARTESIAN_POINT('',(0.134213445967429,0.00258794528841241,0.));
#419=CARTESIAN_POINT('',(0.143438446044922,0.,-0.034));
#420=CARTESIAN_POINT('',(0.143438446044922,-0.102776260375977,-0.034));
#421=CARTESIAN_POINT('',(0.117813446358057,-0.0256249996868644,-0.034));
#422=CARTESIAN_POINT('',(0.,0.0118129453659058,-0.034));
#423=CARTESIAN_POINT('',(0.102776260375977,0.0118129453659058,-0.034));
#424=CARTESIAN_POINT('',(-0.0256249996868644,-0.0138120543209586,-0.034));
#425=CARTESIAN_POINT('',(0.143438446044922,0.,-0.034));
#426=CARTESIAN_POINT('',(0.143438446044922,0.102776260375977,-0.034));
#427=CARTESIAN_POINT('',(0.117813446358057,-0.0256249996868644,-0.034));
#428=CARTESIAN_POINT('',(0.143438446044922,0.0118129453659058,0.));
#429=CARTESIAN_POINT('',(0.143438446044922,0.0118129453659058,-0.036999454498291));
#430=CARTESIAN_POINT('',(0.134213445967429,0.00258794528841241,0.));
#431=CARTESIAN_POINT('',(0.,0.0118129453659058,-0.034));
#432=CARTESIAN_POINT('',(-0.102776260375977,0.0118129453659058,-0.034));
#433=CARTESIAN_POINT('',(-0.0256249996868644,-0.0138120543209586,-0.034));
#434=CARTESIAN_POINT('',(0.110896606445313,0.0443547782897949,-0.0665418319702148));
#435=CARTESIAN_POINT('',(0.170489117304484,-0.0152377325693767,-0.00694932111104326));
#436=CARTESIAN_POINT('',(0.0851616540611766,0.018619825905659,-0.0665418319702148));
#437=CARTESIAN_POINT('',(0.0834566497802734,0.0606286010742188,-0.0653244705200195));
#438=CARTESIAN_POINT('',(0.160389829121705,-0.00198279879642627,-0.0251474273773248));
#439=CARTESIAN_POINT('',(0.0567737814547052,0.0339457327486505,-0.0653244705200195));
#440=MECHANICAL_DESIGN_GEOMETRIC_PRESENTATION_REPRESENTATION('',(#247),
#441);
#441=(
GEOMETRIC_REPRESENTATION_CONTEXT(3)
GLOBAL_UNCERTAINTY_ASSIGNED_CONTEXT((#442))
GLOBAL_UNIT_ASSIGNED_CONTEXT((#445,#444,#443))
REPRESENTATION_CONTEXT('Halter','TOP_LEVEL_ASSEMBLY_PART')
);
#442=UNCERTAINTY_MEASURE_WITH_UNIT(LENGTH_MEASURE(0.005),#445,
'DISTANCE_ACCURACY_VALUE','Maximum Tolerance applied to model');
#443=(
NAMED_UNIT(*)
SI_UNIT($,.STERADIAN.)
SOLID_ANGLE_UNIT()
);
#444=(
NAMED_UNIT(*)
PLANE_ANGLE_UNIT()
SI_UNIT($,.RADIAN.)
);
#445=(
LENGTH_UNIT()
NAMED_UNIT(*)
SI_UNIT(.MILLI.,.METRE.)
);
#446=PRODUCT_DEFINITION_SHAPE('','',#447);
#447=PRODUCT_DEFINITION('','',#449,#448);
#448=PRODUCT_DEFINITION_CONTEXT('',#455,'design');
#449=PRODUCT_DEFINITION_FORMATION_WITH_SPECIFIED_SOURCE('','',#451,
 .NOT_KNOWN.);
#450=PRODUCT_RELATED_PRODUCT_CATEGORY('','',(#451));
#451=PRODUCT('Halter','Halter','Halter',(#453));
#452=PRODUCT_CATEGORY('','');
#453=PRODUCT_CONTEXT('',#455,'mechanical');
#454=APPLICATION_PROTOCOL_DEFINITION('international standard',
'ap242_managed_model_based_3d_engineering',2011,#455);
#455=APPLICATION_CONTEXT('managed model based 3d engineering');
ENDSEC;
END-ISO-10303-21;
