ISO-10303-21;
HEADER;
/* Generated by software containing ST-Developer
 * from STEP Tools, Inc. (www.steptools.com) 
 */

FILE_DESCRIPTION(
/* description */ (
'CAx-IF Rec.Pracs.---Representation and Presentation of Product Manufa
cturing Information (PMI)---4.0---2014-10-13',
'CAx-IF Rec.Pracs.---3D Tessellated Geometry---0.4---2014-09-14','2;1'),

/* implementation_level */ '2;1');

FILE_NAME(
/* name */ 'SD_TRAY',
/* time_stamp */ '2026-06-01T09:50:57+02:00',
/* author */ (''),
/* organization */ (''),
/* preprocessor_version */ 'ST-DEVELOPER v16.7',
/* originating_system */ $,
/* authorisation */ $);

FILE_SCHEMA (('AP242_MANAGED_MODEL_BASED_3D_ENGINEERING_MIM_LF { 1 0 10303 442 20130219 1 4 }'));
ENDSEC;

DATA;
#10=PROPERTY_DEFINITION_REPRESENTATION(#14,#12);
#11=PROPERTY_DEFINITION_REPRESENTATION(#15,#13);
#12=REPRESENTATION('',(#16),#1111);
#13=REPRESENTATION('',(#17),#1111);
#14=PROPERTY_DEFINITION('pmi validation property','',#1116);
#15=PROPERTY_DEFINITION('pmi validation property','',#1116);
#16=VALUE_REPRESENTATION_ITEM('number of annotations',COUNT_MEASURE(0.));
#17=VALUE_REPRESENTATION_ITEM('number of views',COUNT_MEASURE(8.));
#18=CAMERA_MODEL_D3('Top',#721,#26);
#19=CAMERA_MODEL_D3('Front',#723,#27);
#20=CAMERA_MODEL_D3('Right',#725,#28);
#21=CAMERA_MODEL_D3('Back',#727,#29);
#22=CAMERA_MODEL_D3('Bottom',#729,#30);
#23=CAMERA_MODEL_D3('Left',#731,#31);
#24=CAMERA_MODEL_D3('Isometric',#733,#32);
#25=CAMERA_MODEL_D3('Trimetric',#735,#33);
#26=VIEW_VOLUME(.PARALLEL.,#1087,0.,0.,.F.,0.,.F.,.F.,#34);
#27=VIEW_VOLUME(.PARALLEL.,#1090,0.,0.,.F.,0.,.F.,.F.,#35);
#28=VIEW_VOLUME(.PARALLEL.,#1093,0.,0.,.F.,0.,.F.,.F.,#36);
#29=VIEW_VOLUME(.PARALLEL.,#1096,0.,0.,.F.,0.,.F.,.F.,#37);
#30=VIEW_VOLUME(.PARALLEL.,#1099,0.,0.,.F.,0.,.F.,.F.,#38);
#31=VIEW_VOLUME(.PARALLEL.,#1102,0.,0.,.F.,0.,.F.,.F.,#39);
#32=VIEW_VOLUME(.PARALLEL.,#1105,0.,0.,.F.,0.,.F.,.F.,#40);
#33=VIEW_VOLUME(.PARALLEL.,#1108,0.,0.,.F.,0.,.F.,.F.,#41);
#34=PLANAR_BOX('',0.0245546043199122,0.0245546043199122,#722);
#35=PLANAR_BOX('',0.0502249986253655,0.0502249986253655,#724);
#36=PLANAR_BOX('',0.0502249986253655,0.0502249986253655,#726);
#37=PLANAR_BOX('',0.0502249986253655,0.0502249986253655,#728);
#38=PLANAR_BOX('',0.0245546043199122,0.0245546043199122,#730);
#39=PLANAR_BOX('',0.0502249986253655,0.0502249986253655,#732);
#40=PLANAR_BOX('',0.0631866278381346,0.0631866278381346,#734);
#41=PLANAR_BOX('',0.0618138809049944,0.0618138809049944,#736);
#42=DRAUGHTING_MODEL('Top',(#18),#1111);
#43=DRAUGHTING_MODEL('Front',(#19),#1111);
#44=DRAUGHTING_MODEL('Right',(#20),#1111);
#45=DRAUGHTING_MODEL('Back',(#21),#1111);
#46=DRAUGHTING_MODEL('Bottom',(#22),#1111);
#47=DRAUGHTING_MODEL('Left',(#23),#1111);
#48=DRAUGHTING_MODEL('Isometric',(#24),#1111);
#49=DRAUGHTING_MODEL('Trimetric',(#25),#1111);
#50=SHAPE_REPRESENTATION_RELATIONSHIP('','',#677,#51);
#51=ADVANCED_BREP_SHAPE_REPRESENTATION('',(#675),#1111);
#52=CYLINDRICAL_SURFACE('',#691,1.1);
#53=CYLINDRICAL_SURFACE('',#694,1.1);
#54=CYLINDRICAL_SURFACE('',#713,1.7);
#55=CYLINDRICAL_SURFACE('',#714,1.7);
#56=CIRCLE('',#689,1.1);
#57=CIRCLE('',#690,1.1);
#58=CIRCLE('',#692,1.1);
#59=CIRCLE('',#695,1.1);
#60=CIRCLE('',#702,1.7);
#61=CIRCLE('',#705,1.7);
#62=CIRCLE('',#708,1.7);
#63=CIRCLE('',#711,1.7);
#64=ORIENTED_EDGE('',*,*,#228,.F.);
#65=ORIENTED_EDGE('',*,*,#229,.F.);
#66=ORIENTED_EDGE('',*,*,#230,.F.);
#67=ORIENTED_EDGE('',*,*,#231,.T.);
#68=ORIENTED_EDGE('',*,*,#232,.T.);
#69=ORIENTED_EDGE('',*,*,#233,.T.);
#70=ORIENTED_EDGE('',*,*,#231,.F.);
#71=ORIENTED_EDGE('',*,*,#234,.F.);
#72=ORIENTED_EDGE('',*,*,#235,.T.);
#73=ORIENTED_EDGE('',*,*,#236,.T.);
#74=ORIENTED_EDGE('',*,*,#237,.F.);
#75=ORIENTED_EDGE('',*,*,#238,.F.);
#76=ORIENTED_EDGE('',*,*,#239,.F.);
#77=ORIENTED_EDGE('',*,*,#240,.T.);
#78=ORIENTED_EDGE('',*,*,#241,.F.);
#79=ORIENTED_EDGE('',*,*,#242,.F.);
#80=ORIENTED_EDGE('',*,*,#243,.T.);
#81=ORIENTED_EDGE('',*,*,#244,.T.);
#82=ORIENTED_EDGE('',*,*,#245,.T.);
#83=ORIENTED_EDGE('',*,*,#246,.T.);
#84=ORIENTED_EDGE('',*,*,#247,.T.);
#85=ORIENTED_EDGE('',*,*,#248,.F.);
#86=ORIENTED_EDGE('',*,*,#249,.T.);
#87=ORIENTED_EDGE('',*,*,#250,.F.);
#88=ORIENTED_EDGE('',*,*,#251,.T.);
#89=ORIENTED_EDGE('',*,*,#252,.T.);
#90=ORIENTED_EDGE('',*,*,#253,.F.);
#91=ORIENTED_EDGE('',*,*,#254,.F.);
#92=ORIENTED_EDGE('',*,*,#255,.T.);
#93=ORIENTED_EDGE('',*,*,#256,.T.);
#94=ORIENTED_EDGE('',*,*,#257,.F.);
#95=ORIENTED_EDGE('',*,*,#258,.T.);
#96=ORIENTED_EDGE('',*,*,#237,.T.);
#97=ORIENTED_EDGE('',*,*,#259,.F.);
#98=ORIENTED_EDGE('',*,*,#260,.T.);
#99=ORIENTED_EDGE('',*,*,#261,.F.);
#100=ORIENTED_EDGE('',*,*,#239,.T.);
#101=ORIENTED_EDGE('',*,*,#262,.F.);
#102=ORIENTED_EDGE('',*,*,#238,.T.);
#103=ORIENTED_EDGE('',*,*,#258,.F.);
#104=ORIENTED_EDGE('',*,*,#263,.F.);
#105=ORIENTED_EDGE('',*,*,#262,.T.);
#106=ORIENTED_EDGE('',*,*,#257,.T.);
#107=ORIENTED_EDGE('',*,*,#264,.T.);
#108=ORIENTED_EDGE('',*,*,#251,.F.);
#109=ORIENTED_EDGE('',*,*,#265,.F.);
#110=ORIENTED_EDGE('',*,*,#245,.F.);
#111=ORIENTED_EDGE('',*,*,#266,.T.);
#112=ORIENTED_EDGE('',*,*,#259,.T.);
#113=ORIENTED_EDGE('',*,*,#263,.T.);
#114=ORIENTED_EDGE('',*,*,#265,.T.);
#115=ORIENTED_EDGE('',*,*,#250,.T.);
#116=ORIENTED_EDGE('',*,*,#267,.T.);
#117=ORIENTED_EDGE('',*,*,#268,.F.);
#118=ORIENTED_EDGE('',*,*,#269,.F.);
#119=ORIENTED_EDGE('',*,*,#270,.T.);
#120=ORIENTED_EDGE('',*,*,#271,.T.);
#121=ORIENTED_EDGE('',*,*,#246,.F.);
#122=ORIENTED_EDGE('',*,*,#272,.F.);
#123=ORIENTED_EDGE('',*,*,#273,.F.);
#124=ORIENTED_EDGE('',*,*,#274,.F.);
#125=ORIENTED_EDGE('',*,*,#267,.F.);
#126=ORIENTED_EDGE('',*,*,#249,.F.);
#127=ORIENTED_EDGE('',*,*,#275,.F.);
#128=ORIENTED_EDGE('',*,*,#229,.T.);
#129=ORIENTED_EDGE('',*,*,#276,.F.);
#130=ORIENTED_EDGE('',*,*,#247,.F.);
#131=ORIENTED_EDGE('',*,*,#271,.F.);
#132=ORIENTED_EDGE('',*,*,#277,.F.);
#133=ORIENTED_EDGE('',*,*,#278,.F.);
#134=ORIENTED_EDGE('',*,*,#279,.T.);
#135=ORIENTED_EDGE('',*,*,#278,.T.);
#136=ORIENTED_EDGE('',*,*,#279,.F.);
#137=ORIENTED_EDGE('',*,*,#280,.T.);
#138=ORIENTED_EDGE('',*,*,#277,.T.);
#139=ORIENTED_EDGE('',*,*,#280,.F.);
#140=ORIENTED_EDGE('',*,*,#273,.T.);
#141=ORIENTED_EDGE('',*,*,#281,.T.);
#142=ORIENTED_EDGE('',*,*,#282,.T.);
#143=ORIENTED_EDGE('',*,*,#283,.F.);
#144=ORIENTED_EDGE('',*,*,#272,.T.);
#145=ORIENTED_EDGE('',*,*,#270,.F.);
#146=ORIENTED_EDGE('',*,*,#284,.T.);
#147=ORIENTED_EDGE('',*,*,#281,.F.);
#148=ORIENTED_EDGE('',*,*,#274,.T.);
#149=ORIENTED_EDGE('',*,*,#283,.T.);
#150=ORIENTED_EDGE('',*,*,#285,.T.);
#151=ORIENTED_EDGE('',*,*,#268,.T.);
#152=ORIENTED_EDGE('',*,*,#282,.F.);
#153=ORIENTED_EDGE('',*,*,#284,.F.);
#154=ORIENTED_EDGE('',*,*,#269,.T.);
#155=ORIENTED_EDGE('',*,*,#285,.F.);
#156=ORIENTED_EDGE('',*,*,#286,.T.);
#157=ORIENTED_EDGE('',*,*,#253,.T.);
#158=ORIENTED_EDGE('',*,*,#287,.T.);
#159=ORIENTED_EDGE('',*,*,#255,.F.);
#160=ORIENTED_EDGE('',*,*,#288,.T.);
#161=ORIENTED_EDGE('',*,*,#289,.F.);
#162=ORIENTED_EDGE('',*,*,#290,.F.);
#163=ORIENTED_EDGE('',*,*,#291,.F.);
#164=ORIENTED_EDGE('',*,*,#254,.T.);
#165=ORIENTED_EDGE('',*,*,#290,.T.);
#166=ORIENTED_EDGE('',*,*,#292,.F.);
#167=ORIENTED_EDGE('',*,*,#293,.T.);
#168=ORIENTED_EDGE('',*,*,#261,.T.);
#169=ORIENTED_EDGE('',*,*,#294,.T.);
#170=ORIENTED_EDGE('',*,*,#243,.F.);
#171=ORIENTED_EDGE('',*,*,#295,.F.);
#172=ORIENTED_EDGE('',*,*,#296,.T.);
#173=ORIENTED_EDGE('',*,*,#297,.T.);
#174=ORIENTED_EDGE('',*,*,#242,.T.);
#175=ORIENTED_EDGE('',*,*,#298,.F.);
#176=ORIENTED_EDGE('',*,*,#299,.F.);
#177=ORIENTED_EDGE('',*,*,#295,.T.);
#178=ORIENTED_EDGE('',*,*,#300,.F.);
#179=ORIENTED_EDGE('',*,*,#298,.T.);
#180=ORIENTED_EDGE('',*,*,#241,.T.);
#181=ORIENTED_EDGE('',*,*,#301,.T.);
#182=ORIENTED_EDGE('',*,*,#232,.F.);
#183=ORIENTED_EDGE('',*,*,#302,.T.);
#184=ORIENTED_EDGE('',*,*,#303,.F.);
#185=ORIENTED_EDGE('',*,*,#303,.T.);
#186=ORIENTED_EDGE('',*,*,#304,.T.);
#187=ORIENTED_EDGE('',*,*,#296,.F.);
#188=ORIENTED_EDGE('',*,*,#299,.T.);
#189=ORIENTED_EDGE('',*,*,#305,.F.);
#190=ORIENTED_EDGE('',*,*,#306,.T.);
#191=ORIENTED_EDGE('',*,*,#307,.T.);
#192=ORIENTED_EDGE('',*,*,#235,.F.);
#193=ORIENTED_EDGE('',*,*,#308,.T.);
#194=ORIENTED_EDGE('',*,*,#248,.T.);
#195=ORIENTED_EDGE('',*,*,#291,.T.);
#196=ORIENTED_EDGE('',*,*,#289,.T.);
#197=ORIENTED_EDGE('',*,*,#309,.T.);
#198=ORIENTED_EDGE('',*,*,#306,.F.);
#199=ORIENTED_EDGE('',*,*,#292,.T.);
#200=ORIENTED_EDGE('',*,*,#300,.T.);
#201=ORIENTED_EDGE('',*,*,#293,.F.);
#202=ORIENTED_EDGE('',*,*,#305,.T.);
#203=ORIENTED_EDGE('',*,*,#286,.F.);
#204=ORIENTED_EDGE('',*,*,#307,.F.);
#205=ORIENTED_EDGE('',*,*,#309,.F.);
#206=ORIENTED_EDGE('',*,*,#288,.F.);
#207=ORIENTED_EDGE('',*,*,#236,.F.);
#208=ORIENTED_EDGE('',*,*,#297,.F.);
#209=ORIENTED_EDGE('',*,*,#304,.F.);
#210=ORIENTED_EDGE('',*,*,#302,.F.);
#211=ORIENTED_EDGE('',*,*,#240,.F.);
#212=ORIENTED_EDGE('',*,*,#276,.T.);
#213=ORIENTED_EDGE('',*,*,#228,.T.);
#214=ORIENTED_EDGE('',*,*,#233,.F.);
#215=ORIENTED_EDGE('',*,*,#301,.F.);
#216=ORIENTED_EDGE('',*,*,#275,.T.);
#217=ORIENTED_EDGE('',*,*,#308,.F.);
#218=ORIENTED_EDGE('',*,*,#234,.T.);
#219=ORIENTED_EDGE('',*,*,#230,.T.);
#220=ORIENTED_EDGE('',*,*,#252,.F.);
#221=ORIENTED_EDGE('',*,*,#264,.F.);
#222=ORIENTED_EDGE('',*,*,#256,.F.);
#223=ORIENTED_EDGE('',*,*,#287,.F.);
#224=ORIENTED_EDGE('',*,*,#260,.F.);
#225=ORIENTED_EDGE('',*,*,#266,.F.);
#226=ORIENTED_EDGE('',*,*,#244,.F.);
#227=ORIENTED_EDGE('',*,*,#294,.F.);
#228=EDGE_CURVE('',#310,#311,#366,.T.);
#229=EDGE_CURVE('',#312,#310,#367,.T.);
#230=EDGE_CURVE('',#313,#312,#368,.T.);
#231=EDGE_CURVE('',#313,#311,#369,.T.);
#232=EDGE_CURVE('',#314,#315,#370,.F.);
#233=EDGE_CURVE('',#315,#311,#371,.T.);
#234=EDGE_CURVE('',#316,#313,#372,.T.);
#235=EDGE_CURVE('',#316,#317,#373,.F.);
#236=EDGE_CURVE('',#317,#318,#374,.T.);
#237=EDGE_CURVE('',#319,#318,#375,.T.);
#238=EDGE_CURVE('',#320,#319,#376,.T.);
#239=EDGE_CURVE('',#321,#320,#377,.T.);
#240=EDGE_CURVE('',#321,#314,#378,.T.);
#241=EDGE_CURVE('',#322,#323,#379,.T.);
#242=EDGE_CURVE('',#324,#322,#380,.T.);
#243=EDGE_CURVE('',#324,#325,#381,.T.);
#244=EDGE_CURVE('',#325,#326,#382,.T.);
#245=EDGE_CURVE('',#326,#327,#383,.T.);
#246=EDGE_CURVE('',#327,#328,#384,.F.);
#247=EDGE_CURVE('',#328,#323,#385,.F.);
#248=EDGE_CURVE('',#329,#330,#386,.T.);
#249=EDGE_CURVE('',#329,#331,#387,.F.);
#250=EDGE_CURVE('',#332,#331,#388,.F.);
#251=EDGE_CURVE('',#332,#333,#389,.T.);
#252=EDGE_CURVE('',#333,#334,#390,.T.);
#253=EDGE_CURVE('',#335,#334,#391,.T.);
#254=EDGE_CURVE('',#330,#335,#392,.T.);
#255=EDGE_CURVE('',#318,#336,#393,.F.);
#256=EDGE_CURVE('',#336,#337,#394,.T.);
#257=EDGE_CURVE('',#338,#337,#395,.T.);
#258=EDGE_CURVE('',#338,#319,#396,.T.);
#259=EDGE_CURVE('',#339,#340,#397,.T.);
#260=EDGE_CURVE('',#339,#341,#398,.T.);
#261=EDGE_CURVE('',#321,#341,#399,.F.);
#262=EDGE_CURVE('',#340,#320,#400,.T.);
#263=EDGE_CURVE('',#340,#338,#401,.T.);
#264=EDGE_CURVE('',#337,#333,#402,.T.);
#265=EDGE_CURVE('',#327,#332,#403,.T.);
#266=EDGE_CURVE('',#326,#339,#404,.T.);
#267=EDGE_CURVE('',#331,#342,#405,.F.);
#268=EDGE_CURVE('',#343,#342,#406,.T.);
#269=EDGE_CURVE('',#344,#343,#407,.T.);
#270=EDGE_CURVE('',#344,#345,#408,.T.);
#271=EDGE_CURVE('',#345,#328,#409,.F.);
#272=EDGE_CURVE('',#346,#345,#410,.T.);
#273=EDGE_CURVE('',#347,#346,#411,.T.);
#274=EDGE_CURVE('',#342,#347,#412,.T.);
#275=EDGE_CURVE('',#312,#329,#413,.F.);
#276=EDGE_CURVE('',#323,#310,#414,.F.);
#277=EDGE_CURVE('',#348,#348,#56,.T.);
#278=EDGE_CURVE('',#349,#349,#57,.T.);
#279=EDGE_CURVE('',#350,#350,#58,.F.);
#280=EDGE_CURVE('',#351,#351,#59,.F.);
#281=EDGE_CURVE('',#346,#352,#415,.F.);
#282=EDGE_CURVE('',#352,#353,#416,.F.);
#283=EDGE_CURVE('',#347,#353,#417,.F.);
#284=EDGE_CURVE('',#344,#352,#418,.F.);
#285=EDGE_CURVE('',#353,#343,#419,.F.);
#286=EDGE_CURVE('',#354,#354,#60,.T.);
#287=EDGE_CURVE('',#334,#336,#420,.T.);
#288=EDGE_CURVE('',#318,#355,#421,.T.);
#289=EDGE_CURVE('',#356,#355,#422,.T.);
#290=EDGE_CURVE('',#335,#356,#423,.T.);
#291=EDGE_CURVE('',#330,#357,#424,.T.);
#292=EDGE_CURVE('',#357,#356,#425,.T.);
#293=EDGE_CURVE('',#358,#358,#61,.T.);
#294=EDGE_CURVE('',#341,#325,#426,.T.);
#295=EDGE_CURVE('',#359,#324,#427,.T.);
#296=EDGE_CURVE('',#359,#360,#428,.T.);
#297=EDGE_CURVE('',#360,#321,#429,.T.);
#298=EDGE_CURVE('',#361,#322,#430,.T.);
#299=EDGE_CURVE('',#359,#361,#431,.T.);
#300=EDGE_CURVE('',#362,#362,#62,.T.);
#301=EDGE_CURVE('',#323,#315,#432,.T.);
#302=EDGE_CURVE('',#314,#363,#433,.T.);
#303=EDGE_CURVE('',#361,#363,#434,.T.);
#304=EDGE_CURVE('',#363,#360,#435,.T.);
#305=EDGE_CURVE('',#364,#364,#63,.T.);
#306=EDGE_CURVE('',#357,#365,#436,.T.);
#307=EDGE_CURVE('',#365,#317,#437,.T.);
#308=EDGE_CURVE('',#316,#329,#438,.T.);
#309=EDGE_CURVE('',#355,#365,#439,.T.);
#310=VERTEX_POINT('',#916);
#311=VERTEX_POINT('',#917);
#312=VERTEX_POINT('',#919);
#313=VERTEX_POINT('',#921);
#314=VERTEX_POINT('',#925);
#315=VERTEX_POINT('',#926);
#316=VERTEX_POINT('',#929);
#317=VERTEX_POINT('',#931);
#318=VERTEX_POINT('',#933);
#319=VERTEX_POINT('',#935);
#320=VERTEX_POINT('',#937);
#321=VERTEX_POINT('',#939);
#322=VERTEX_POINT('',#943);
#323=VERTEX_POINT('',#944);
#324=VERTEX_POINT('',#946);
#325=VERTEX_POINT('',#948);
#326=VERTEX_POINT('',#950);
#327=VERTEX_POINT('',#952);
#328=VERTEX_POINT('',#954);
#329=VERTEX_POINT('',#958);
#330=VERTEX_POINT('',#959);
#331=VERTEX_POINT('',#961);
#332=VERTEX_POINT('',#963);
#333=VERTEX_POINT('',#965);
#334=VERTEX_POINT('',#967);
#335=VERTEX_POINT('',#969);
#336=VERTEX_POINT('',#973);
#337=VERTEX_POINT('',#975);
#338=VERTEX_POINT('',#977);
#339=VERTEX_POINT('',#981);
#340=VERTEX_POINT('',#982);
#341=VERTEX_POINT('',#984);
#342=VERTEX_POINT('',#995);
#343=VERTEX_POINT('',#997);
#344=VERTEX_POINT('',#999);
#345=VERTEX_POINT('',#1001);
#346=VERTEX_POINT('',#1005);
#347=VERTEX_POINT('',#1007);
#348=VERTEX_POINT('',#1012);
#349=VERTEX_POINT('',#1014);
#350=VERTEX_POINT('',#1017);
#351=VERTEX_POINT('',#1021);
#352=VERTEX_POINT('',#1025);
#353=VERTEX_POINT('',#1027);
#354=VERTEX_POINT('',#1036);
#355=VERTEX_POINT('',#1039);
#356=VERTEX_POINT('',#1041);
#357=VERTEX_POINT('',#1045);
#358=VERTEX_POINT('',#1049);
#359=VERTEX_POINT('',#1052);
#360=VERTEX_POINT('',#1054);
#361=VERTEX_POINT('',#1058);
#362=VERTEX_POINT('',#1062);
#363=VERTEX_POINT('',#1065);
#364=VERTEX_POINT('',#1071);
#365=VERTEX_POINT('',#1073);
#366=LINE('',#915,#440);
#367=LINE('',#918,#441);
#368=LINE('',#920,#442);
#369=LINE('',#922,#443);
#370=LINE('',#924,#444);
#371=LINE('',#927,#445);
#372=LINE('',#928,#446);
#373=LINE('',#930,#447);
#374=LINE('',#932,#448);
#375=LINE('',#934,#449);
#376=LINE('',#936,#450);
#377=LINE('',#938,#451);
#378=LINE('',#940,#452);
#379=LINE('',#942,#453);
#380=LINE('',#945,#454);
#381=LINE('',#947,#455);
#382=LINE('',#949,#456);
#383=LINE('',#951,#457);
#384=LINE('',#953,#458);
#385=LINE('',#955,#459);
#386=LINE('',#957,#460);
#387=LINE('',#960,#461);
#388=LINE('',#962,#462);
#389=LINE('',#964,#463);
#390=LINE('',#966,#464);
#391=LINE('',#968,#465);
#392=LINE('',#970,#466);
#393=LINE('',#972,#467);
#394=LINE('',#974,#468);
#395=LINE('',#976,#469);
#396=LINE('',#978,#470);
#397=LINE('',#980,#471);
#398=LINE('',#983,#472);
#399=LINE('',#985,#473);
#400=LINE('',#986,#474);
#401=LINE('',#988,#475);
#402=LINE('',#990,#476);
#403=LINE('',#991,#477);
#404=LINE('',#992,#478);
#405=LINE('',#994,#479);
#406=LINE('',#996,#480);
#407=LINE('',#998,#481);
#408=LINE('',#1000,#482);
#409=LINE('',#1002,#483);
#410=LINE('',#1004,#484);
#411=LINE('',#1006,#485);
#412=LINE('',#1008,#486);
#413=LINE('',#1009,#487);
#414=LINE('',#1010,#488);
#415=LINE('',#1024,#489);
#416=LINE('',#1026,#490);
#417=LINE('',#1028,#491);
#418=LINE('',#1030,#492);
#419=LINE('',#1032,#493);
#420=LINE('',#1037,#494);
#421=LINE('',#1038,#495);
#422=LINE('',#1040,#496);
#423=LINE('',#1042,#497);
#424=LINE('',#1044,#498);
#425=LINE('',#1046,#499);
#426=LINE('',#1050,#500);
#427=LINE('',#1051,#501);
#428=LINE('',#1053,#502);
#429=LINE('',#1055,#503);
#430=LINE('',#1057,#504);
#431=LINE('',#1059,#505);
#432=LINE('',#1063,#506);
#433=LINE('',#1064,#507);
#434=LINE('',#1066,#508);
#435=LINE('',#1068,#509);
#436=LINE('',#1072,#510);
#437=LINE('',#1074,#511);
#438=LINE('',#1075,#512);
#439=LINE('',#1077,#513);
#440=VECTOR('',#741,1000.);
#441=VECTOR('',#742,1000.);
#442=VECTOR('',#743,1000.);
#443=VECTOR('',#744,1000.);
#444=VECTOR('',#747,1000.);
#445=VECTOR('',#748,1000.);
#446=VECTOR('',#749,1000.);
#447=VECTOR('',#750,1000.);
#448=VECTOR('',#751,1000.);
#449=VECTOR('',#752,1000.);
#450=VECTOR('',#753,1000.);
#451=VECTOR('',#754,1000.);
#452=VECTOR('',#755,1000.);
#453=VECTOR('',#758,1000.);
#454=VECTOR('',#759,1000.);
#455=VECTOR('',#760,1000.);
#456=VECTOR('',#761,1000.);
#457=VECTOR('',#762,1000.);
#458=VECTOR('',#763,1000.);
#459=VECTOR('',#764,1000.);
#460=VECTOR('',#767,1000.);
#461=VECTOR('',#768,1000.);
#462=VECTOR('',#769,1000.);
#463=VECTOR('',#770,1000.);
#464=VECTOR('',#771,1000.);
#465=VECTOR('',#772,1000.);
#466=VECTOR('',#773,1000.);
#467=VECTOR('',#776,1000.);
#468=VECTOR('',#777,1000.);
#469=VECTOR('',#778,1000.);
#470=VECTOR('',#779,1000.);
#471=VECTOR('',#782,1000.);
#472=VECTOR('',#783,1000.);
#473=VECTOR('',#784,1000.);
#474=VECTOR('',#785,1000.);
#475=VECTOR('',#788,1000.);
#476=VECTOR('',#791,1000.);
#477=VECTOR('',#792,1000.);
#478=VECTOR('',#793,1000.);
#479=VECTOR('',#796,1000.);
#480=VECTOR('',#797,1000.);
#481=VECTOR('',#798,1000.);
#482=VECTOR('',#799,1000.);
#483=VECTOR('',#800,1000.);
#484=VECTOR('',#803,1000.);
#485=VECTOR('',#804,1000.);
#486=VECTOR('',#805,1000.);
#487=VECTOR('',#806,1000.);
#488=VECTOR('',#807,1000.);
#489=VECTOR('',#826,1000.);
#490=VECTOR('',#827,1000.);
#491=VECTOR('',#828,1000.);
#492=VECTOR('',#831,1000.);
#493=VECTOR('',#834,1000.);
#494=VECTOR('',#841,1000.);
#495=VECTOR('',#842,1000.);
#496=VECTOR('',#843,1000.);
#497=VECTOR('',#844,1000.);
#498=VECTOR('',#847,1000.);
#499=VECTOR('',#848,1000.);
#500=VECTOR('',#853,1000.);
#501=VECTOR('',#854,1000.);
#502=VECTOR('',#855,1000.);
#503=VECTOR('',#856,1000.);
#504=VECTOR('',#859,1000.);
#505=VECTOR('',#860,1000.);
#506=VECTOR('',#865,1000.);
#507=VECTOR('',#866,1000.);
#508=VECTOR('',#867,1000.);
#509=VECTOR('',#870,1000.);
#510=VECTOR('',#875,1000.);
#511=VECTOR('',#876,1000.);
#512=VECTOR('',#877,1000.);
#513=VECTOR('',#880,1000.);
#514=EDGE_LOOP('',(#64,#65,#66,#67));
#515=EDGE_LOOP('',(#68,#69,#70,#71,#72,#73,#74,#75,#76,#77));
#516=EDGE_LOOP('',(#78,#79,#80,#81,#82,#83,#84));
#517=EDGE_LOOP('',(#85,#86,#87,#88,#89,#90,#91));
#518=EDGE_LOOP('',(#92,#93,#94,#95,#96));
#519=EDGE_LOOP('',(#97,#98,#99,#100,#101));
#520=EDGE_LOOP('',(#102,#103,#104,#105));
#521=EDGE_LOOP('',(#106,#107,#108,#109,#110,#111,#112,#113));
#522=EDGE_LOOP('',(#114,#115,#116,#117,#118,#119,#120,#121));
#523=EDGE_LOOP('',(#122,#123,#124,#125,#126,#127,#128,#129,#130,#131));
#524=EDGE_LOOP('',(#132));
#525=EDGE_LOOP('',(#133));
#526=EDGE_LOOP('',(#134));
#527=EDGE_LOOP('',(#135));
#528=EDGE_LOOP('',(#136));
#529=EDGE_LOOP('',(#137));
#530=EDGE_LOOP('',(#138));
#531=EDGE_LOOP('',(#139));
#532=EDGE_LOOP('',(#140,#141,#142,#143));
#533=EDGE_LOOP('',(#144,#145,#146,#147));
#534=EDGE_LOOP('',(#148,#149,#150,#151));
#535=EDGE_LOOP('',(#152,#153,#154,#155));
#536=EDGE_LOOP('',(#156));
#537=EDGE_LOOP('',(#157,#158,#159,#160,#161,#162));
#538=EDGE_LOOP('',(#163,#164,#165,#166));
#539=EDGE_LOOP('',(#167));
#540=EDGE_LOOP('',(#168,#169,#170,#171,#172,#173));
#541=EDGE_LOOP('',(#174,#175,#176,#177));
#542=EDGE_LOOP('',(#178));
#543=EDGE_LOOP('',(#179,#180,#181,#182,#183,#184));
#544=EDGE_LOOP('',(#185,#186,#187,#188));
#545=EDGE_LOOP('',(#189));
#546=EDGE_LOOP('',(#190,#191,#192,#193,#194,#195));
#547=EDGE_LOOP('',(#196,#197,#198,#199));
#548=EDGE_LOOP('',(#200));
#549=EDGE_LOOP('',(#201));
#550=EDGE_LOOP('',(#202));
#551=EDGE_LOOP('',(#203));
#552=EDGE_LOOP('',(#204,#205,#206,#207));
#553=EDGE_LOOP('',(#208,#209,#210,#211));
#554=EDGE_LOOP('',(#212,#213,#214,#215));
#555=EDGE_LOOP('',(#216,#217,#218,#219));
#556=EDGE_LOOP('',(#220,#221,#222,#223));
#557=EDGE_LOOP('',(#224,#225,#226,#227));
#558=FACE_BOUND('',#514,.T.);
#559=FACE_BOUND('',#515,.T.);
#560=FACE_BOUND('',#516,.T.);
#561=FACE_BOUND('',#517,.T.);
#562=FACE_BOUND('',#518,.T.);
#563=FACE_BOUND('',#519,.T.);
#564=FACE_BOUND('',#520,.T.);
#565=FACE_BOUND('',#521,.T.);
#566=FACE_BOUND('',#522,.T.);
#567=FACE_BOUND('',#523,.T.);
#568=FACE_BOUND('',#524,.T.);
#569=FACE_BOUND('',#525,.T.);
#570=FACE_BOUND('',#526,.T.);
#571=FACE_BOUND('',#527,.T.);
#572=FACE_BOUND('',#528,.T.);
#573=FACE_BOUND('',#529,.T.);
#574=FACE_BOUND('',#530,.T.);
#575=FACE_BOUND('',#531,.T.);
#576=FACE_BOUND('',#532,.T.);
#577=FACE_BOUND('',#533,.T.);
#578=FACE_BOUND('',#534,.T.);
#579=FACE_BOUND('',#535,.T.);
#580=FACE_BOUND('',#536,.T.);
#581=FACE_BOUND('',#537,.T.);
#582=FACE_BOUND('',#538,.T.);
#583=FACE_BOUND('',#539,.T.);
#584=FACE_BOUND('',#540,.T.);
#585=FACE_BOUND('',#541,.T.);
#586=FACE_BOUND('',#542,.T.);
#587=FACE_BOUND('',#543,.T.);
#588=FACE_BOUND('',#544,.T.);
#589=FACE_BOUND('',#545,.T.);
#590=FACE_BOUND('',#546,.T.);
#591=FACE_BOUND('',#547,.T.);
#592=FACE_BOUND('',#548,.T.);
#593=FACE_BOUND('',#549,.T.);
#594=FACE_BOUND('',#550,.T.);
#595=FACE_BOUND('',#551,.T.);
#596=FACE_BOUND('',#552,.T.);
#597=FACE_BOUND('',#553,.T.);
#598=FACE_BOUND('',#554,.T.);
#599=FACE_BOUND('',#555,.T.);
#600=FACE_BOUND('',#556,.T.);
#601=FACE_BOUND('',#557,.T.);
#602=PLANE('',#679);
#603=PLANE('',#680);
#604=PLANE('',#681);
#605=PLANE('',#682);
#606=PLANE('',#683);
#607=PLANE('',#684);
#608=PLANE('',#685);
#609=PLANE('',#686);
#610=PLANE('',#687);
#611=PLANE('',#688);
#612=PLANE('',#693);
#613=PLANE('',#696);
#614=PLANE('',#697);
#615=PLANE('',#698);
#616=PLANE('',#699);
#617=PLANE('',#700);
#618=PLANE('',#701);
#619=PLANE('',#703);
#620=PLANE('',#704);
#621=PLANE('',#706);
#622=PLANE('',#707);
#623=PLANE('',#709);
#624=PLANE('',#710);
#625=PLANE('',#712);
#626=PLANE('',#715);
#627=PLANE('',#716);
#628=PLANE('',#717);
#629=PLANE('',#718);
#630=PLANE('',#719);
#631=PLANE('',#720);
#632=ADVANCED_FACE('',(#558),#602,.F.);
#633=ADVANCED_FACE('',(#559),#603,.F.);
#634=ADVANCED_FACE('',(#560),#604,.F.);
#635=ADVANCED_FACE('',(#561),#605,.F.);
#636=ADVANCED_FACE('',(#562),#606,.F.);
#637=ADVANCED_FACE('',(#563),#607,.F.);
#638=ADVANCED_FACE('',(#564),#608,.F.);
#639=ADVANCED_FACE('',(#565),#609,.T.);
#640=ADVANCED_FACE('',(#566),#610,.F.);
#641=ADVANCED_FACE('',(#567,#568,#569),#611,.T.);
#642=ADVANCED_FACE('',(#570,#571),#52,.F.);
#643=ADVANCED_FACE('',(#572),#612,.T.);
#644=ADVANCED_FACE('',(#573,#574),#53,.F.);
#645=ADVANCED_FACE('',(#575),#613,.T.);
#646=ADVANCED_FACE('',(#576),#614,.F.);
#647=ADVANCED_FACE('',(#577),#615,.F.);
#648=ADVANCED_FACE('',(#578),#616,.F.);
#649=ADVANCED_FACE('',(#579),#617,.T.);
#650=ADVANCED_FACE('',(#580,#581),#618,.F.);
#651=ADVANCED_FACE('',(#582),#619,.T.);
#652=ADVANCED_FACE('',(#583,#584),#620,.F.);
#653=ADVANCED_FACE('',(#585),#621,.T.);
#654=ADVANCED_FACE('',(#586,#587),#622,.T.);
#655=ADVANCED_FACE('',(#588),#623,.T.);
#656=ADVANCED_FACE('',(#589,#590),#624,.T.);
#657=ADVANCED_FACE('',(#591),#625,.T.);
#658=ADVANCED_FACE('',(#592,#593),#54,.F.);
#659=ADVANCED_FACE('',(#594,#595),#55,.F.);
#660=ADVANCED_FACE('',(#596),#626,.T.);
#661=ADVANCED_FACE('',(#597),#627,.T.);
#662=ADVANCED_FACE('',(#598),#628,.F.);
#663=ADVANCED_FACE('',(#599),#629,.F.);
#664=ADVANCED_FACE('',(#600),#630,.F.);
#665=ADVANCED_FACE('',(#601),#631,.F.);
#666=CLOSED_SHELL('',(#632,#633,#634,#635,#636,#637,#638,#639,#640,#641,
#642,#643,#644,#645,#646,#647,#648,#649,#650,#651,#652,#653,#654,#655,#656,
#657,#658,#659,#660,#661,#662,#663,#664,#665));
#667=STYLED_ITEM('',(#668),#675);
#668=PRESENTATION_STYLE_ASSIGNMENT((#669));
#669=SURFACE_STYLE_USAGE(.BOTH.,#670);
#670=SURFACE_SIDE_STYLE('',(#671));
#671=SURFACE_STYLE_FILL_AREA(#672);
#672=FILL_AREA_STYLE('',(#673));
#673=FILL_AREA_STYLE_COLOUR('',#674);
#674=COLOUR_RGB('',0.596063172350652,0.666666666666667,0.686259250782025);
#675=MANIFOLD_SOLID_BREP('',#666);
#676=SHAPE_DEFINITION_REPRESENTATION(#1116,#677);
#677=SHAPE_REPRESENTATION('SD_TRAY',(#678),#1111);
#678=AXIS2_PLACEMENT_3D('',#913,#737,#738);
#679=AXIS2_PLACEMENT_3D('',#914,#739,#740);
#680=AXIS2_PLACEMENT_3D('',#923,#745,#746);
#681=AXIS2_PLACEMENT_3D('',#941,#756,#757);
#682=AXIS2_PLACEMENT_3D('',#956,#765,#766);
#683=AXIS2_PLACEMENT_3D('',#971,#774,#775);
#684=AXIS2_PLACEMENT_3D('',#979,#780,#781);
#685=AXIS2_PLACEMENT_3D('',#987,#786,#787);
#686=AXIS2_PLACEMENT_3D('',#989,#789,#790);
#687=AXIS2_PLACEMENT_3D('',#993,#794,#795);
#688=AXIS2_PLACEMENT_3D('',#1003,#801,#802);
#689=AXIS2_PLACEMENT_3D('',#1011,#808,#809);
#690=AXIS2_PLACEMENT_3D('',#1013,#810,#811);
#691=AXIS2_PLACEMENT_3D('',#1015,#812,#813);
#692=AXIS2_PLACEMENT_3D('',#1016,#814,#815);
#693=AXIS2_PLACEMENT_3D('',#1018,#816,#817);
#694=AXIS2_PLACEMENT_3D('',#1019,#818,#819);
#695=AXIS2_PLACEMENT_3D('',#1020,#820,#821);
#696=AXIS2_PLACEMENT_3D('',#1022,#822,#823);
#697=AXIS2_PLACEMENT_3D('',#1023,#824,#825);
#698=AXIS2_PLACEMENT_3D('',#1029,#829,#830);
#699=AXIS2_PLACEMENT_3D('',#1031,#832,#833);
#700=AXIS2_PLACEMENT_3D('',#1033,#835,#836);
#701=AXIS2_PLACEMENT_3D('',#1034,#837,#838);
#702=AXIS2_PLACEMENT_3D('',#1035,#839,#840);
#703=AXIS2_PLACEMENT_3D('',#1043,#845,#846);
#704=AXIS2_PLACEMENT_3D('',#1047,#849,#850);
#705=AXIS2_PLACEMENT_3D('',#1048,#851,#852);
#706=AXIS2_PLACEMENT_3D('',#1056,#857,#858);
#707=AXIS2_PLACEMENT_3D('',#1060,#861,#862);
#708=AXIS2_PLACEMENT_3D('',#1061,#863,#864);
#709=AXIS2_PLACEMENT_3D('',#1067,#868,#869);
#710=AXIS2_PLACEMENT_3D('',#1069,#871,#872);
#711=AXIS2_PLACEMENT_3D('',#1070,#873,#874);
#712=AXIS2_PLACEMENT_3D('',#1076,#878,#879);
#713=AXIS2_PLACEMENT_3D('',#1078,#881,#882);
#714=AXIS2_PLACEMENT_3D('',#1079,#883,#884);
#715=AXIS2_PLACEMENT_3D('',#1080,#885,#886);
#716=AXIS2_PLACEMENT_3D('',#1081,#887,#888);
#717=AXIS2_PLACEMENT_3D('',#1082,#889,#890);
#718=AXIS2_PLACEMENT_3D('',#1083,#891,#892);
#719=AXIS2_PLACEMENT_3D('',#1084,#893,#894);
#720=AXIS2_PLACEMENT_3D('',#1085,#895,#896);
#721=AXIS2_PLACEMENT_3D('',#1086,#897,#898);
#722=AXIS2_PLACEMENT_3D('',#1088,#897,#898);
#723=AXIS2_PLACEMENT_3D('',#1089,#899,#900);
#724=AXIS2_PLACEMENT_3D('',#1091,#899,#900);
#725=AXIS2_PLACEMENT_3D('',#1092,#901,#902);
#726=AXIS2_PLACEMENT_3D('',#1094,#901,#902);
#727=AXIS2_PLACEMENT_3D('',#1095,#903,#904);
#728=AXIS2_PLACEMENT_3D('',#1097,#903,#904);
#729=AXIS2_PLACEMENT_3D('',#1098,#905,#906);
#730=AXIS2_PLACEMENT_3D('',#1100,#905,#906);
#731=AXIS2_PLACEMENT_3D('',#1101,#907,#908);
#732=AXIS2_PLACEMENT_3D('',#1103,#907,#908);
#733=AXIS2_PLACEMENT_3D('',#1104,#909,#910);
#734=AXIS2_PLACEMENT_3D('',#1106,#909,#910);
#735=AXIS2_PLACEMENT_3D('',#1107,#911,#912);
#736=AXIS2_PLACEMENT_3D('',#1109,#911,#912);
#737=DIRECTION('',(0.,0.,1.));
#738=DIRECTION('',(1.,0.,0.));
#739=DIRECTION('',(0.,0.,-1.));
#740=DIRECTION('',(0.,-1.,0.));
#741=DIRECTION('',(0.,-1.,3.55271367880049E-16));
#742=DIRECTION('',(1.,0.,-9.2433532292332E-17));
#743=DIRECTION('',(0.,1.,0.));
#744=DIRECTION('',(1.,0.,0.));
#745=DIRECTION('',(0.,1.,0.));
#746=DIRECTION('',(0.,0.,-1.));
#747=DIRECTION('',(1.,0.,-4.44089209850064E-15));
#748=DIRECTION('',(0.,0.,1.));
#749=DIRECTION('',(0.,0.,1.));
#750=DIRECTION('',(1.,0.,0.));
#751=DIRECTION('',(0.,0.,-1.));
#752=DIRECTION('',(0.,0.,1.));
#753=DIRECTION('',(-1.,0.,0.));
#754=DIRECTION('',(0.,0.,-1.));
#755=DIRECTION('',(-1.44560289664734E-16,0.,1.));
#756=DIRECTION('',(1.,0.,-3.02192520416172E-16));
#757=DIRECTION('',(-3.02192520416172E-16,0.,-1.));
#758=DIRECTION('',(0.,-1.,3.55271367880049E-16));
#759=DIRECTION('',(5.5600111409513E-16,0.,1.));
#760=DIRECTION('',(0.,-1.,0.));
#761=DIRECTION('',(-2.1368238041013E-16,-0.707106781186548,-0.707106781186548));
#762=DIRECTION('',(-3.02192520416172E-16,0.,-1.));
#763=DIRECTION('',(0.,1.,0.));
#764=DIRECTION('',(-3.02192520416172E-16,0.,-1.));
#765=DIRECTION('',(-1.,0.,0.));
#766=DIRECTION('',(0.,1.,0.));
#767=DIRECTION('',(0.,1.,0.));
#768=DIRECTION('',(0.,0.,1.));
#769=DIRECTION('',(0.,1.,0.));
#770=DIRECTION('',(0.,0.,1.));
#771=DIRECTION('',(0.,0.707106781186548,0.707106781186547));
#772=DIRECTION('',(0.,-1.,0.));
#773=DIRECTION('',(0.,0.,-1.));
#774=DIRECTION('',(1.,0.,0.));
#775=DIRECTION('',(0.,-1.,0.));
#776=DIRECTION('',(0.,-1.,0.));
#777=DIRECTION('',(0.,-0.707106781186548,-0.707106781186547));
#778=DIRECTION('',(0.,0.,1.));
#779=DIRECTION('',(0.,-1.,0.));
#780=DIRECTION('',(-1.,0.,0.));
#781=DIRECTION('',(0.,1.,0.));
#782=DIRECTION('',(0.,0.,-1.));
#783=DIRECTION('',(0.,0.707106781186548,0.707106781186548));
#784=DIRECTION('',(0.,-1.,0.));
#785=DIRECTION('',(0.,-1.,0.));
#786=DIRECTION('',(0.,0.,1.));
#787=DIRECTION('',(0.,1.,0.));
#788=DIRECTION('',(-1.,0.,0.));
#789=DIRECTION('',(0.,1.,0.));
#790=DIRECTION('',(0.,0.,-1.));
#791=DIRECTION('',(1.,0.,-1.0842021724855E-15));
#792=DIRECTION('',(-1.,0.,6.62951646870117E-16));
#793=DIRECTION('',(1.,0.,-1.0842021724855E-15));
#794=DIRECTION('',(-6.62951646870117E-16,0.,-1.));
#795=DIRECTION('',(-1.,0.,6.62951646870117E-16));
#796=DIRECTION('',(-1.,0.,6.62951646870117E-16));
#797=DIRECTION('',(0.,1.,0.));
#798=DIRECTION('',(-1.,0.,3.46944695195361E-16));
#799=DIRECTION('',(0.,1.,0.));
#800=DIRECTION('',(-1.,0.,6.62951646870117E-16));
#801=DIRECTION('',(0.,1.,0.));
#802=DIRECTION('',(0.,0.,-1.));
#803=DIRECTION('',(-6.93889390390723E-16,0.,-1.));
#804=DIRECTION('',(1.,0.,-3.46944695195361E-16));
#805=DIRECTION('',(0.,0.,1.));
#806=DIRECTION('',(0.,0.,1.));
#807=DIRECTION('',(-3.02192520416172E-16,0.,-1.));
#808=DIRECTION('',(0.,1.,0.));
#809=DIRECTION('',(1.,0.,1.83697019872103E-16));
#810=DIRECTION('',(0.,1.,0.));
#811=DIRECTION('',(1.,0.,1.83697019872103E-16));
#812=DIRECTION('',(0.,1.,0.));
#813=DIRECTION('',(0.,0.,-1.));
#814=DIRECTION('',(0.,1.,0.));
#815=DIRECTION('',(1.,0.,1.83697019872103E-16));
#816=DIRECTION('',(0.,1.,0.));
#817=DIRECTION('',(0.,0.,-1.));
#818=DIRECTION('',(0.,1.,0.));
#819=DIRECTION('',(0.,0.,-1.));
#820=DIRECTION('',(0.,1.,0.));
#821=DIRECTION('',(1.,0.,1.83697019872103E-16));
#822=DIRECTION('',(0.,1.,0.));
#823=DIRECTION('',(0.,0.,-1.));
#824=DIRECTION('',(3.46944695195361E-16,0.,1.));
#825=DIRECTION('',(1.,0.,-3.46944695195361E-16));
#826=DIRECTION('',(0.,1.,0.));
#827=DIRECTION('',(1.,0.,-3.46944695195361E-16));
#828=DIRECTION('',(0.,1.,0.));
#829=DIRECTION('',(1.,0.,-6.93889390390723E-16));
#830=DIRECTION('',(-6.93889390390723E-16,0.,-1.));
#831=DIRECTION('',(-6.93889390390723E-16,0.,-1.));
#832=DIRECTION('',(-1.,0.,0.));
#833=DIRECTION('',(0.,1.,0.));
#834=DIRECTION('',(0.,0.,1.));
#835=DIRECTION('',(0.,1.,0.));
#836=DIRECTION('',(0.,0.,-1.));
#837=DIRECTION('',(1.0842021724855E-15,0.,1.));
#838=DIRECTION('',(1.,0.,-1.0842021724855E-15));
#839=DIRECTION('',(1.0842021724855E-15,0.,1.));
#840=DIRECTION('',(1.,0.,-1.0842021724855E-15));
#841=DIRECTION('',(-1.,0.,1.0842021724855E-15));
#842=DIRECTION('',(-0.707106781186547,0.707106781186548,7.66646708341685E-16));
#843=DIRECTION('',(0.,-1.,0.));
#844=DIRECTION('',(-1.,0.,1.0842021724855E-15));
#845=DIRECTION('',(0.,1.,0.));
#846=DIRECTION('',(0.,0.,-1.));
#847=DIRECTION('',(-1.,0.,-1.73472347597681E-16));
#848=DIRECTION('',(0.,0.,-1.));
#849=DIRECTION('',(1.0842021724855E-15,0.,1.));
#850=DIRECTION('',(1.,0.,-1.0842021724855E-15));
#851=DIRECTION('',(1.0842021724855E-15,0.,1.));
#852=DIRECTION('',(1.,0.,-1.0842021724855E-15));
#853=DIRECTION('',(-1.,0.,1.0842021724855E-15));
#854=DIRECTION('',(-1.,0.,1.0842021724855E-15));
#855=DIRECTION('',(0.,-1.,0.));
#856=DIRECTION('',(-0.707106781186548,-0.707106781186547,7.66646708341684E-16));
#857=DIRECTION('',(0.,1.,0.));
#858=DIRECTION('',(0.,0.,-1.));
#859=DIRECTION('',(-1.,0.,0.));
#860=DIRECTION('',(-1.44560289664734E-16,0.,1.));
#861=DIRECTION('',(0.,0.,1.));
#862=DIRECTION('',(0.,1.,0.));
#863=DIRECTION('',(0.,0.,1.));
#864=DIRECTION('',(1.,-1.83697019872103E-16,0.));
#865=DIRECTION('',(0.,-1.,3.55271367880049E-16));
#866=DIRECTION('',(0.707106781186548,0.707106781186547,0.));
#867=DIRECTION('',(0.,-1.,0.));
#868=DIRECTION('',(1.,0.,1.44560289664734E-16));
#869=DIRECTION('',(1.44560289664734E-16,0.,-1.));
#870=DIRECTION('',(1.44560289664734E-16,0.,-1.));
#871=DIRECTION('',(-1.73472347597681E-16,0.,1.));
#872=DIRECTION('',(1.,0.,1.73472347597681E-16));
#873=DIRECTION('',(0.,0.,1.));
#874=DIRECTION('',(1.,-1.83697019872103E-16,0.));
#875=DIRECTION('',(0.,-1.,0.));
#876=DIRECTION('',(0.707106781186547,-0.707106781186548,1.2266347333467E-16));
#877=DIRECTION('',(0.,1.,0.));
#878=DIRECTION('',(-1.,0.,0.));
#879=DIRECTION('',(0.,1.,0.));
#880=DIRECTION('',(0.,0.,1.));
#881=DIRECTION('',(0.,0.,1.));
#882=DIRECTION('',(0.,1.,0.));
#883=DIRECTION('',(0.,0.,1.));
#884=DIRECTION('',(0.,1.,0.));
#885=DIRECTION('',(-0.707106781186548,-0.707106781186547,0.));
#886=DIRECTION('',(0.,0.,1.));
#887=DIRECTION('',(0.707106781186547,-0.707106781186548,1.02219561112225E-16));
#888=DIRECTION('',(1.44560289664734E-16,0.,-1.));
#889=DIRECTION('',(-1.,0.,0.));
#890=DIRECTION('',(0.,1.,0.));
#891=DIRECTION('',(1.,0.,0.));
#892=DIRECTION('',(0.,-1.,0.));
#893=DIRECTION('',(7.66646708341685E-16,-0.707106781186548,0.707106781186548));
#894=DIRECTION('',(-1.,0.,1.0842021724855E-15));
#895=DIRECTION('',(7.66646708341684E-16,-0.707106781186548,0.707106781186548));
#896=DIRECTION('',(-1.,0.,1.0842021724855E-15));
#897=DIRECTION('',(0.,0.,1.));
#898=DIRECTION('',(1.,0.,0.));
#899=DIRECTION('',(0.,-1.,0.));
#900=DIRECTION('',(1.,0.,0.));
#901=DIRECTION('',(1.,0.,0.));
#902=DIRECTION('',(0.,1.,0.));
#903=DIRECTION('',(0.,1.,0.));
#904=DIRECTION('',(-1.,0.,0.));
#905=DIRECTION('',(0.,0.,-1.));
#906=DIRECTION('',(1.,0.,0.));
#907=DIRECTION('',(-1.,0.,0.));
#908=DIRECTION('',(0.,-1.,0.));
#909=DIRECTION('',(0.577350269189626,-0.577350269189626,0.577350269189626));
#910=DIRECTION('',(0.707106759177282,0.707106803195811,4.40185295713658E-8));
#911=DIRECTION('',(0.718873086818576,-0.585048618558824,0.375419230954334));
#912=DIRECTION('',(0.631219074781214,0.775604589744251,-2.92179483385446E-8));
#913=CARTESIAN_POINT('',(0.,0.,0.));
#914=CARTESIAN_POINT('',(73.5,23.3859964834027,-19.0274781454476));
#915=CARTESIAN_POINT('',(105.7,28.3859964834028,-19.0274781454476));
#916=CARTESIAN_POINT('',(105.7,22.3859964834027,-19.0274781454476));
#917=CARTESIAN_POINT('',(105.7,18.3859964834027,-19.0274781454476));
#918=CARTESIAN_POINT('',(74.3,22.3859964834027,-19.0274781454476));
#919=CARTESIAN_POINT('',(74.3,22.3859964834027,-19.0274781454476));
#920=CARTESIAN_POINT('',(74.3,18.3859964834027,-19.0274781454476));
#921=CARTESIAN_POINT('',(74.3,18.3859964834027,-19.0274781454476));
#922=CARTESIAN_POINT('',(73.5,18.3859964834027,-19.0274781454476));
#923=CARTESIAN_POINT('',(106.5,18.3859964834027,-19.0274781454476));
#924=CARTESIAN_POINT('',(105.7,18.3859964834027,-20.8274781454476));
#925=CARTESIAN_POINT('',(106.5,18.3859964834027,-20.8274781454476));
#926=CARTESIAN_POINT('',(105.7,18.3859964834027,-20.8274781454476));
#927=CARTESIAN_POINT('',(105.7,18.3859964834027,-20.8274781454476));
#928=CARTESIAN_POINT('',(74.3,18.3859964834027,-20.8274781454476));
#929=CARTESIAN_POINT('',(74.3,18.3859964834027,-20.8274781454476));
#930=CARTESIAN_POINT('',(73.5,18.3859964834027,-20.8274781454476));
#931=CARTESIAN_POINT('',(73.5,18.3859964834027,-20.8274781454476));
#932=CARTESIAN_POINT('',(73.5,18.3859964834027,-26.8274781454476));
#933=CARTESIAN_POINT('',(73.5,18.3859964834027,-26.8274781454476));
#934=CARTESIAN_POINT('',(73.5,18.3859964834027,-68.0274781454476));
#935=CARTESIAN_POINT('',(73.5,18.3859964834027,-68.0274781454476));
#936=CARTESIAN_POINT('',(106.5,18.3859964834027,-68.0274781454476));
#937=CARTESIAN_POINT('',(106.5,18.3859964834027,-68.0274781454476));
#938=CARTESIAN_POINT('',(106.5,18.3859964834027,-19.0274781454476));
#939=CARTESIAN_POINT('',(106.5,18.3859964834027,-26.8274781454476));
#940=CARTESIAN_POINT('',(106.5,18.3859964834027,-20.8274781454476));
#941=CARTESIAN_POINT('',(105.7,22.3859964834027,-19.0274781454476));
#942=CARTESIAN_POINT('',(105.7,28.3859964834028,-20.8274781454476));
#943=CARTESIAN_POINT('',(105.7,28.3859964834028,-20.8274781454476));
#944=CARTESIAN_POINT('',(105.7,22.3859964834027,-20.8274781454476));
#945=CARTESIAN_POINT('',(105.7,28.3859964834027,-26.8274781454476));
#946=CARTESIAN_POINT('',(105.7,28.3859964834027,-26.8274781454476));
#947=CARTESIAN_POINT('',(105.7,28.3859964834027,-26.8274781454476));
#948=CARTESIAN_POINT('',(105.7,24.3859964834027,-26.8274781454476));
#949=CARTESIAN_POINT('',(105.7,27.2859964834027,-23.9274781454476));
#950=CARTESIAN_POINT('',(105.7,23.3859964834027,-27.8274781454476));
#951=CARTESIAN_POINT('',(105.7,23.3859964834027,-19.0274781454476));
#952=CARTESIAN_POINT('',(105.7,23.3859964834027,-66.0274781454476));
#953=CARTESIAN_POINT('',(105.7,22.3859964834027,-66.0274781454476));
#954=CARTESIAN_POINT('',(105.7,22.3859964834027,-66.0274781454476));
#955=CARTESIAN_POINT('',(105.7,22.3859964834027,-19.0274781454476));
#956=CARTESIAN_POINT('',(74.3,22.3859964834027,-66.0274781454476));
#957=CARTESIAN_POINT('',(74.3,18.3859964834027,-20.8274781454476));
#958=CARTESIAN_POINT('',(74.3,22.3859964834027,-20.8274781454476));
#959=CARTESIAN_POINT('',(74.3,28.3859964834027,-20.8274781454476));
#960=CARTESIAN_POINT('',(74.3,22.3859964834027,-66.0274781454476));
#961=CARTESIAN_POINT('',(74.3,22.3859964834027,-66.0274781454476));
#962=CARTESIAN_POINT('',(74.3,22.3859964834027,-66.0274781454476));
#963=CARTESIAN_POINT('',(74.3,23.3859964834027,-66.0274781454476));
#964=CARTESIAN_POINT('',(74.3,23.3859964834027,-66.0274781454476));
#965=CARTESIAN_POINT('',(74.3,23.3859964834027,-27.8274781454476));
#966=CARTESIAN_POINT('',(74.3,3.78599648340273,-47.4274781454476));
#967=CARTESIAN_POINT('',(74.3,24.3859964834027,-26.8274781454476));
#968=CARTESIAN_POINT('',(74.3,28.3859964834027,-26.8274781454476));
#969=CARTESIAN_POINT('',(74.3,28.3859964834027,-26.8274781454476));
#970=CARTESIAN_POINT('',(74.3,28.3859964834027,-19.0274781454476));
#971=CARTESIAN_POINT('',(73.5,23.3859964834027,-68.0274781454476));
#972=CARTESIAN_POINT('',(73.5,28.3859964834027,-26.8274781454476));
#973=CARTESIAN_POINT('',(73.5,24.3859964834027,-26.8274781454476));
#974=CARTESIAN_POINT('',(73.5,3.28599648340273,-47.9274781454476));
#975=CARTESIAN_POINT('',(73.5,23.3859964834027,-27.8274781454476));
#976=CARTESIAN_POINT('',(73.5,23.3859964834027,-68.0274781454476));
#977=CARTESIAN_POINT('',(73.5,23.3859964834027,-68.0274781454476));
#978=CARTESIAN_POINT('',(73.5,23.3859964834027,-68.0274781454476));
#979=CARTESIAN_POINT('',(106.5,23.3859964834027,-19.0274781454476));
#980=CARTESIAN_POINT('',(106.5,23.3859964834027,-19.0274781454476));
#981=CARTESIAN_POINT('',(106.5,23.3859964834027,-27.8274781454476));
#982=CARTESIAN_POINT('',(106.5,23.3859964834027,-68.0274781454476));
#983=CARTESIAN_POINT('',(106.5,27.7859964834027,-23.4274781454476));
#984=CARTESIAN_POINT('',(106.5,24.3859964834027,-26.8274781454476));
#985=CARTESIAN_POINT('',(106.5,28.3859964834027,-26.8274781454476));
#986=CARTESIAN_POINT('',(106.5,23.3859964834027,-68.0274781454476));
#987=CARTESIAN_POINT('',(106.5,23.3859964834027,-68.0274781454476));
#988=CARTESIAN_POINT('',(106.5,23.3859964834027,-68.0274781454476));
#989=CARTESIAN_POINT('',(106.5,23.3859964834027,-19.0274781454476));
#990=CARTESIAN_POINT('',(106.5,23.3859964834027,-27.8274781454476));
#991=CARTESIAN_POINT('',(105.7,23.3859964834027,-66.0274781454476));
#992=CARTESIAN_POINT('',(106.5,23.3859964834027,-27.8274781454476));
#993=CARTESIAN_POINT('',(105.7,22.3859964834027,-66.0274781454476));
#994=CARTESIAN_POINT('',(105.7,22.3859964834027,-66.0274781454476));
#995=CARTESIAN_POINT('',(79.8,22.3859964834027,-66.0274781454476));
#996=CARTESIAN_POINT('',(79.8,20.3859964834027,-66.0274781454476));
#997=CARTESIAN_POINT('',(79.8,20.3859964834027,-66.0274781454476));
#998=CARTESIAN_POINT('',(99.8,20.3859964834027,-66.0274781454476));
#999=CARTESIAN_POINT('',(99.8,20.3859964834027,-66.0274781454476));
#1000=CARTESIAN_POINT('',(99.8,20.3859964834027,-66.0274781454476));
#1001=CARTESIAN_POINT('',(99.8,22.3859964834027,-66.0274781454476));
#1002=CARTESIAN_POINT('',(105.7,22.3859964834027,-66.0274781454476));
#1003=CARTESIAN_POINT('',(106.5,22.3859964834027,-19.0274781454476));
#1004=CARTESIAN_POINT('',(99.8,22.3859964834027,-61.0274781454476));
#1005=CARTESIAN_POINT('',(99.8,22.3859964834027,-61.0274781454476));
#1006=CARTESIAN_POINT('',(79.8,22.3859964834027,-61.0274781454476));
#1007=CARTESIAN_POINT('',(79.8,22.3859964834027,-61.0274781454476));
#1008=CARTESIAN_POINT('',(79.8,22.3859964834027,-66.0274781454476));
#1009=CARTESIAN_POINT('',(74.3,22.3859964834027,-66.0274781454476));
#1010=CARTESIAN_POINT('',(105.7,22.3859964834027,-19.0274781454476));
#1011=CARTESIAN_POINT('',(76.7,22.3859964834027,-63.5274781454476));
#1012=CARTESIAN_POINT('',(77.8,22.3859964834027,-63.5274781454476));
#1013=CARTESIAN_POINT('',(103.3,22.3859964834027,-63.5274781454476));
#1014=CARTESIAN_POINT('',(104.4,22.3859964834027,-63.5274781454476));
#1015=CARTESIAN_POINT('',(103.3,19.3859964834027,-63.5274781454476));
#1016=CARTESIAN_POINT('',(103.3,19.3859964834027,-63.5274781454476));
#1017=CARTESIAN_POINT('',(104.4,19.3859964834027,-63.5274781454476));
#1018=CARTESIAN_POINT('',(103.3,19.3859964834027,-63.5274781454476));
#1019=CARTESIAN_POINT('',(76.7,19.3859964834027,-63.5274781454476));
#1020=CARTESIAN_POINT('',(76.7,19.3859964834027,-63.5274781454476));
#1021=CARTESIAN_POINT('',(77.8,19.3859964834027,-63.5274781454476));
#1022=CARTESIAN_POINT('',(76.7,19.3859964834027,-63.5274781454476));
#1023=CARTESIAN_POINT('',(79.8,20.3859964834027,-61.0274781454476));
#1024=CARTESIAN_POINT('',(99.8,20.3859964834027,-61.0274781454476));
#1025=CARTESIAN_POINT('',(99.8,20.3859964834027,-61.0274781454476));
#1026=CARTESIAN_POINT('',(79.8,20.3859964834027,-61.0274781454476));
#1027=CARTESIAN_POINT('',(79.8,20.3859964834027,-61.0274781454476));
#1028=CARTESIAN_POINT('',(79.8,20.3859964834027,-61.0274781454476));
#1029=CARTESIAN_POINT('',(99.8,20.3859964834027,-61.0274781454476));
#1030=CARTESIAN_POINT('',(99.8,20.3859964834027,-61.0274781454476));
#1031=CARTESIAN_POINT('',(79.8,20.3859964834027,-66.0274781454476));
#1032=CARTESIAN_POINT('',(79.8,20.3859964834027,-66.0274781454476));
#1033=CARTESIAN_POINT('',(106.5,20.3859964834027,-19.0274781454476));
#1034=CARTESIAN_POINT('',(74.3,28.3859964834027,-26.8274781454476));
#1035=CARTESIAN_POINT('',(71.,25.8859964834027,-26.8274781454476));
#1036=CARTESIAN_POINT('',(72.7,25.8859964834027,-26.8274781454476));
#1037=CARTESIAN_POINT('',(74.3,24.3859964834027,-26.8274781454476));
#1038=CARTESIAN_POINT('',(73.5,18.3859964834027,-26.8274781454476));
#1039=CARTESIAN_POINT('',(68.5,23.3859964834027,-26.8274781454476));
#1040=CARTESIAN_POINT('',(68.5,28.3859964834027,-26.8274781454476));
#1041=CARTESIAN_POINT('',(68.5,28.3859964834027,-26.8274781454476));
#1042=CARTESIAN_POINT('',(74.3,28.3859964834027,-26.8274781454476));
#1043=CARTESIAN_POINT('',(106.5,28.3859964834027,-19.0274781454476));
#1044=CARTESIAN_POINT('',(73.5,28.3859964834027,-20.8274781454476));
#1045=CARTESIAN_POINT('',(68.5,28.3859964834027,-20.8274781454476));
#1046=CARTESIAN_POINT('',(68.5,28.3859964834027,-20.8274781454476));
#1047=CARTESIAN_POINT('',(106.5,28.3859964834027,-26.8274781454476));
#1048=CARTESIAN_POINT('',(109.,25.8859964834027,-26.8274781454476));
#1049=CARTESIAN_POINT('',(110.7,25.8859964834027,-26.8274781454476));
#1050=CARTESIAN_POINT('',(106.5,24.3859964834027,-26.8274781454476));
#1051=CARTESIAN_POINT('',(106.5,28.3859964834027,-26.8274781454476));
#1052=CARTESIAN_POINT('',(111.5,28.3859964834027,-26.8274781454476));
#1053=CARTESIAN_POINT('',(111.5,28.3859964834027,-26.8274781454476));
#1054=CARTESIAN_POINT('',(111.5,23.3859964834027,-26.8274781454476));
#1055=CARTESIAN_POINT('',(106.5,18.3859964834027,-26.8274781454476));
#1056=CARTESIAN_POINT('',(106.5,28.3859964834027,-19.0274781454476));
#1057=CARTESIAN_POINT('',(111.5,28.3859964834027,-20.8274781454476));
#1058=CARTESIAN_POINT('',(111.5,28.3859964834027,-20.8274781454476));
#1059=CARTESIAN_POINT('',(111.5,28.3859964834027,-26.8274781454476));
#1060=CARTESIAN_POINT('',(111.5,28.3859964834027,-20.8274781454476));
#1061=CARTESIAN_POINT('',(109.,25.8859964834027,-20.8274781454476));
#1062=CARTESIAN_POINT('',(110.7,25.8859964834027,-20.8274781454476));
#1063=CARTESIAN_POINT('',(105.7,28.3859964834028,-20.8274781454476));
#1064=CARTESIAN_POINT('',(114.,25.8859964834027,-20.8274781454476));
#1065=CARTESIAN_POINT('',(111.5,23.3859964834027,-20.8274781454476));
#1066=CARTESIAN_POINT('',(111.5,28.3859964834027,-20.8274781454476));
#1067=CARTESIAN_POINT('',(111.5,28.3859964834027,-26.8274781454476));
#1068=CARTESIAN_POINT('',(111.5,23.3859964834027,-26.8274781454476));
#1069=CARTESIAN_POINT('',(73.5,28.3859964834027,-20.8274781454476));
#1070=CARTESIAN_POINT('',(71.,25.8859964834027,-20.8274781454476));
#1071=CARTESIAN_POINT('',(72.7,25.8859964834027,-20.8274781454476));
#1072=CARTESIAN_POINT('',(68.5,28.3859964834027,-20.8274781454476));
#1073=CARTESIAN_POINT('',(68.5,23.3859964834027,-20.8274781454476));
#1074=CARTESIAN_POINT('',(68.5,23.3859964834027,-20.8274781454476));
#1075=CARTESIAN_POINT('',(74.3,18.3859964834027,-20.8274781454476));
#1076=CARTESIAN_POINT('',(68.5,28.3859964834027,-20.8274781454476));
#1077=CARTESIAN_POINT('',(68.5,23.3859964834027,-20.8274781454476));
#1078=CARTESIAN_POINT('',(109.,25.8859964834027,-29.8274781454476));
#1079=CARTESIAN_POINT('',(71.,25.8859964834027,-29.8274781454476));
#1080=CARTESIAN_POINT('',(73.5,18.3859964834027,-19.0274781454476));
#1081=CARTESIAN_POINT('',(106.5,18.3859964834027,-19.0274781454476));
#1082=CARTESIAN_POINT('',(105.7,28.3859964834028,-20.8274781454476));
#1083=CARTESIAN_POINT('',(74.3,18.3859964834027,-20.8274781454476));
#1084=CARTESIAN_POINT('',(74.3,24.3859964834027,-26.8274781454476));
#1085=CARTESIAN_POINT('',(106.5,24.3859964834027,-26.8274781454476));
#1086=CARTESIAN_POINT('',(0.09,0.0233859958648682,0.));
#1087=CARTESIAN_POINT('',(0.09,0.0233859958648682,0.049241569519043));
#1088=CARTESIAN_POINT('',(0.0777226978400439,0.0111086937049121,0.));
#1089=CARTESIAN_POINT('',(0.09,0.,-0.0435274772644043));
#1090=CARTESIAN_POINT('',(0.09,-0.100720733642578,-0.0435274772644043));
#1091=CARTESIAN_POINT('',(0.0648875006873172,-0.0251124993126828,-0.0435274772644043));
#1092=CARTESIAN_POINT('',(0.,0.0233859958648682,-0.0435274772644043));
#1093=CARTESIAN_POINT('',(0.100720733642578,0.0233859958648682,-0.0435274772644043));
#1094=CARTESIAN_POINT('',(-0.0251124993126828,-0.0017265034478146,-0.0435274772644043));
#1095=CARTESIAN_POINT('',(0.09,0.,-0.0435274772644043));
#1096=CARTESIAN_POINT('',(0.09,0.100720733642578,-0.0435274772644043));
#1097=CARTESIAN_POINT('',(0.0648875006873172,-0.0251124993126828,-0.0435274772644043));
#1098=CARTESIAN_POINT('',(0.09,0.0233859958648682,0.));
#1099=CARTESIAN_POINT('',(0.09,0.0233859958648682,-0.049241569519043));
#1100=CARTESIAN_POINT('',(0.0777226978400439,0.0111086937049121,0.));
#1101=CARTESIAN_POINT('',(0.,0.0233859958648682,-0.0435274772644043));
#1102=CARTESIAN_POINT('',(-0.100720733642578,0.0233859958648682,-0.0435274772644043));
#1103=CARTESIAN_POINT('',(-0.0251124993126828,-0.0017265034478146,-0.0435274772644043));
#1104=CARTESIAN_POINT('',(0.0823044891357422,0.0310815048217773,-0.0512229881286621));
#1105=CARTESIAN_POINT('',(0.155462771097819,-0.0420767771402995,0.0219352938334147));
#1106=CARTESIAN_POINT('',(0.0507111752166749,-0.000511809097289977,-0.0512229881286621));
#1107=CARTESIAN_POINT('',(0.0650726547241211,0.0436728973388672,-0.0565453567504883));
#1108=CARTESIAN_POINT('',(0.154184858244178,-0.0288502955892044,-0.0100080255753838));
#1109=CARTESIAN_POINT('',(0.0341657142716239,0.01276595688637,-0.0565453567504883));
#1110=MECHANICAL_DESIGN_GEOMETRIC_PRESENTATION_REPRESENTATION('',(#667),
#1111);
#1111=(
GEOMETRIC_REPRESENTATION_CONTEXT(3)
GLOBAL_UNCERTAINTY_ASSIGNED_CONTEXT((#1112))
GLOBAL_UNIT_ASSIGNED_CONTEXT((#1115,#1114,#1113))
REPRESENTATION_CONTEXT('SD_TRAY','TOP_LEVEL_ASSEMBLY_PART')
);
#1112=UNCERTAINTY_MEASURE_WITH_UNIT(LENGTH_MEASURE(0.005),#1115,
'DISTANCE_ACCURACY_VALUE','Maximum Tolerance applied to model');
#1113=(
NAMED_UNIT(*)
SI_UNIT($,.STERADIAN.)
SOLID_ANGLE_UNIT()
);
#1114=(
NAMED_UNIT(*)
PLANE_ANGLE_UNIT()
SI_UNIT($,.RADIAN.)
);
#1115=(
LENGTH_UNIT()
NAMED_UNIT(*)
SI_UNIT(.MILLI.,.METRE.)
);
#1116=PRODUCT_DEFINITION_SHAPE('','',#1117);
#1117=PRODUCT_DEFINITION('','',#1119,#1118);
#1118=PRODUCT_DEFINITION_CONTEXT('',#1125,'design');
#1119=PRODUCT_DEFINITION_FORMATION_WITH_SPECIFIED_SOURCE('','',#1121,
 .NOT_KNOWN.);
#1120=PRODUCT_RELATED_PRODUCT_CATEGORY('','',(#1121));
#1121=PRODUCT('SD_TRAY','SD_TRAY','SD_TRAY',(#1123));
#1122=PRODUCT_CATEGORY('','');
#1123=PRODUCT_CONTEXT('',#1125,'mechanical');
#1124=APPLICATION_PROTOCOL_DEFINITION('international standard',
'ap242_managed_model_based_3d_engineering',2011,#1125);
#1125=APPLICATION_CONTEXT('managed model based 3d engineering');
ENDSEC;
END-ISO-10303-21;
